<?xml version="1.0" encoding="UTF-8"?>
<svg version="1.1" xmlns="http://www.w3.org/2000/svg" width="1331" height="324">
<path d="M0 0 C8.67408322 7.9110724 15.69755041 16.98598554 22.40087891 26.58984375 C23.29419922 27.86408203 23.29419922 27.86408203 24.20556641 29.1640625 C31.16650722 39.94411408 35.81660126 52.66518991 39.27587891 64.96484375 C39.46674072 65.6403125 39.65760254 66.31578125 39.85424805 67.01171875 C42.85158172 78.35459635 43.7652059 89.63820947 43.71337891 101.33984375 C43.70846436 102.65879639 43.7035498 103.97774902 43.69848633 105.33666992 C43.58138094 115.09725396 42.80445879 124.14162526 40.40087891 133.58984375 C40.16739746 134.58153564 40.16739746 134.58153564 39.92919922 135.59326172 C35.84377603 152.75448546 28.04996995 169.51708044 17.40087891 183.58984375 C16.71638672 184.49476563 16.03189453 185.3996875 15.32666016 186.33203125 C-7.88330448 215.75076561 -40.86401756 234.36104762 -78.12988281 238.89794922 C-115.52996189 242.88909329 -151.94284012 232.39339347 -181.36303711 208.99975586 C-209.93515688 185.60884095 -226.88806875 153.10647791 -231.59912109 116.58984375 C-232.51625932 99.3716805 -232.36164408 82.2586742 -227.59912109 65.58984375 C-227.38481445 64.82430176 -227.17050781 64.05875977 -226.94970703 63.27001953 C-220.70325226 41.55290566 -209.73202684 23.25811726 -194.59912109 6.58984375 C-193.78443359 5.69007812 -192.96974609 4.7903125 -192.13037109 3.86328125 C-140.73923498 -50.09741167 -54.05038374 -47.6633613 0 0 Z " fill="#F5F0F4" transform="translate(260.59912109375,62.41015625)"/>
<path d="M0 0 C0.99 0 1.98 0 3 0 C3.28085449 0.5669458 3.56170898 1.1338916 3.85107422 1.71801758 C10.83633681 15.80047698 18.00524506 29.76789756 25.40673828 43.63574219 C26.35791857 45.41819796 27.3075761 47.20146726 28.25561523 48.9855957 C29.15123134 50.6709635 30.05034383 52.35447912 30.95336914 54.03588867 C31.35289795 54.78845947 31.75242676 55.54103027 32.1640625 56.31640625 C32.51936035 56.98099854 32.8746582 57.64559082 33.24072266 58.33032227 C34 60 34 60 34 62 C34.66 62 35.32 62 36 62 C36.27230438 61.13007416 36.54460876 60.26014832 36.82516479 59.36386108 C37.9494601 56.14470898 39.26815333 53.22286589 40.79736328 50.17822266 C41.35779327 49.05751373 41.91822327 47.93680481 42.49563599 46.78213501 C43.10377514 45.5760673 43.71200269 44.37004415 44.3203125 43.1640625 C44.94557121 41.91727968 45.57047426 40.67031844 46.19503784 39.42318726 C47.83217314 36.15651781 49.47410077 32.89228063 51.11706543 29.62854004 C52.79580946 26.29158645 54.46997225 22.95233636 56.14453125 19.61328125 C59.42522833 13.07327488 62.71099571 6.53583328 66 0 C66.99 0 67.98 0 69 0 C69.19110352 1.26255615 69.38220703 2.5251123 69.57910156 3.82592773 C69.84957997 5.61182086 70.12009051 7.39770912 70.390625 9.18359375 C70.60748207 10.61544258 70.60748207 10.61544258 70.82872009 12.07621765 C71.62318622 17.31753035 72.42077698 22.55834269 73.22387695 27.79833984 C73.54640214 29.90331795 73.868912 32.0082984 74.19140625 34.11328125 C74.42981987 35.66876678 74.42981987 35.66876678 74.67304993 37.25567627 C75.54980083 42.99344289 76.39940636 48.73367915 77.21484375 54.48046875 C77.3840332 55.63554932 77.55322266 56.79062988 77.72753906 57.98071289 C78.02523715 60.01577323 78.31057194 62.05269673 78.58105469 64.09155273 C79.16416768 67.98408147 79.53876238 70.38934737 81.94140625 73.5703125 C84.3038782 75.21104254 86.15898625 75.68433181 89 76 C89 76.66 89 77.32 89 78 C80.09 78 71.18 78 62 78 C62 77.34 62 76.68 62 76 C63.65 75.67 65.3 75.34 67 75 C67.10544654 68.76192303 66.75850326 62.80514578 65.94140625 56.625 C65.8327977 55.77446045 65.72418915 54.9239209 65.61228943 54.04760742 C65.3838383 52.26917649 65.15261184 50.4911 64.91870117 48.71337891 C64.55992945 45.98041868 64.21199629 43.24622606 63.86523438 40.51171875 C63.64126117 38.7785635 63.41667432 37.04548742 63.19140625 35.3125 C63.08719864 34.49281738 62.98299103 33.67313477 62.87562561 32.82861328 C62.68241482 29.10267695 62.68241482 29.10267695 61 26 C60.61779297 26.76441406 60.23558594 27.52882812 59.84179688 28.31640625 C59.00857137 29.98285726 58.17534042 31.64930555 57.3420105 33.31570435 C55.74758017 36.50419265 54.15375223 39.69297972 52.56103516 42.88232422 C47.09572684 53.82381039 47.09572684 53.82381039 44.4296875 59.0703125 C40.95136032 65.92577916 37.64258539 72.76766103 35 80 C33.19384766 79.84716797 33.19384766 79.84716797 31 79 C29.41943359 76.61767578 29.41943359 76.61767578 27.8984375 73.4453125 C27.33036377 72.2814502 26.76229004 71.11758789 26.17700195 69.91845703 C25.57626473 68.65400456 24.97559882 67.38951821 24.375 66.125 C23.44283468 64.20257181 22.50564949 62.28264408 21.56825256 60.36276245 C20.941415 59.0780107 20.31620353 57.79246432 19.69261169 56.50613403 C17.01260071 50.98494705 14.19830438 45.54151739 11.3125 40.125 C10.5376673 38.66932039 9.76292084 37.21359488 8.98828125 35.7578125 C8.67415283 35.1714502 8.36002441 34.58508789 8.03637695 33.98095703 C6.65410489 31.33884736 5.32820698 28.66961353 4 26 C3.28336891 31.8710383 2.57142865 37.7426196 1.86376953 43.61474609 C1.6225359 45.61099487 1.38003642 47.6070911 1.13623047 49.60302734 C0.78537916 52.47714395 0.43913085 55.35178402 0.09375 58.2265625 C-0.0156189 59.11429352 -0.12498779 60.00202454 -0.2376709 60.91665649 C-0.76071092 65.30782482 -1.12682525 69.56745767 -1 74 C0.65 74.66 2.3 75.32 4 76 C4 76.66 4 77.32 4 78 C-3.92 78 -11.84 78 -20 78 C-20 77.34 -20 76.68 -20 76 C-18.329375 75.5978125 -18.329375 75.5978125 -16.625 75.1875 C-12.78159049 74.34190981 -12.78159049 74.34190981 -11 71 C-10.42912242 68.6438973 -10.42912242 68.6438973 -10.08618164 65.97216797 C-9.86068382 64.43313309 -9.86068382 64.43313309 -9.63063049 62.86300659 C-9.39774574 61.19445114 -9.39774574 61.19445114 -9.16015625 59.4921875 C-8.99253281 58.33816437 -8.82490936 57.18414124 -8.65220642 55.99514771 C-8.11511667 52.28942661 -7.58830379 48.58233783 -7.0625 44.875 C-6.36960676 40.03852187 -5.67235552 35.20268542 -4.97265625 30.3671875 C-4.72112289 28.62353912 -4.72112289 28.62353912 -4.46450806 26.84466553 C-3.15629098 17.86158025 -1.67258873 8.92206388 0 0 Z " fill="#F398AC" transform="translate(707,132)"/>
<path d="M0 0 C4.81970922 -0.07473903 9.63907335 -0.12887722 14.45922852 -0.16479492 C16.09535609 -0.17978456 17.73144415 -0.20018332 19.36743164 -0.22631836 C39.57945981 -0.54087846 39.57945981 -0.54087846 47.375 5.3125 C51.8361074 9.87982424 53.55567094 14.3608029 54.0625 20.6328125 C53.87493865 27.73669863 50.85322229 33.02544716 46 38 C45.01 38.66 44.02 39.32 43 40 C43.65226562 40.27972656 44.30453125 40.55945313 44.9765625 40.84765625 C52.036396 44.08601645 57.17082978 47.43968942 60.1328125 54.82421875 C61.9322979 61.41422608 62.28360226 69.09789882 59.4375 75.4375 C55.5869739 81.81914116 50.4745521 85.19789582 43.48001099 87.40664673 C39.36190257 88.39192184 35.36688681 88.36970843 31.15234375 88.29296875 C29.80638878 88.28660149 29.80638878 88.28660149 28.4332428 88.28010559 C25.60100757 88.26347363 22.76951576 88.22585197 19.9375 88.1875 C18.00326557 88.17243309 16.06901986 88.15874822 14.13476562 88.14648438 C9.42289589 88.11362112 4.71157345 88.06194841 0 88 C0 87.34 0 86.68 0 86 C1.134375 85.71125 2.26875 85.4225 3.4375 85.125 C4.613125 84.75375 5.78875 84.3825 7 84 C8.47246579 81.05506843 8.15596703 78.07302484 8.16113281 74.84399414 C8.16609772 74.1072496 8.17106262 73.37050507 8.17617798 72.61143494 C8.19080743 70.16933262 8.19760235 67.72729522 8.203125 65.28515625 C8.20887515 63.59126279 8.2146329 61.89736936 8.22039795 60.20347595 C8.23090971 56.65005184 8.23675144 53.09665037 8.24023438 49.54321289 C8.24572408 44.98543752 8.26976136 40.42796015 8.29820633 35.87027836 C8.31680942 32.37103901 8.32203702 28.87187183 8.32357025 25.3725872 C8.32660184 23.6920248 8.33464734 22.01146381 8.34775543 20.33094978 C8.36477015 17.98220096 8.36294743 15.63418547 8.35644531 13.28540039 C8.37026749 12.24030807 8.37026749 12.24030807 8.3843689 11.17410278 C8.35964504 8.32971919 8.31689558 6.4474763 6.64569092 4.08763123 C4.49963055 2.66930763 2.52754324 2.3415599 0 2 C0 1.34 0 0.68 0 0 Z M19 5 C19 30.74 19 56.48 19 83 C34.10755975 84.02986655 34.10755975 84.02986655 45.54296875 77.50390625 C50.41065263 72.03628374 50.29250896 67.17323464 50.20703125 60.1640625 C49.84383094 54.61326538 47.81179293 51.57714313 43.9375 47.8125 C37.51036999 42.64638917 30.02453966 41.55419224 22 42 C22 41.34 22 40.68 22 40 C22.65226562 39.97421875 23.30453125 39.9484375 23.9765625 39.921875 C29.72082863 39.54909077 33.5320128 38.93608396 38 35 C42.00586383 30.34453663 43.23850663 26.03223023 43 20 C42.16622995 15.06953286 40.79737181 11.2922436 36.9375 8 C29.97650903 3.26060189 30.86792192 5 19 5 Z " fill="#F398AB" transform="translate(361,122)"/>
<path d="M0 0 C6.79521452 -0.05100661 13.59037906 -0.08586157 20.38574219 -0.10986328 C22.69402919 -0.11987684 25.00230364 -0.13349163 27.31054688 -0.15087891 C30.64195872 -0.17533227 33.9732018 -0.18652989 37.3046875 -0.1953125 C38.834991 -0.21079636 38.834991 -0.21079636 40.39620972 -0.22659302 C53.17710268 -0.2285626 64.66166416 2.14442111 74.21484375 11.08984375 C82.24937122 19.68696395 84.63701412 29.84060971 84.34765625 41.40234375 C83.32274262 52.0084724 79.88835372 60.95720573 71.7421875 67.93359375 C62.1824388 75.1408651 52.97189471 76.45418476 41.2109375 76.29296875 C40.02650055 76.28872391 38.8420636 76.28447906 37.62173462 76.28010559 C33.87258287 76.26343533 30.12398679 76.22580413 26.375 76.1875 C23.81901823 76.17243814 21.26302796 76.15875237 18.70703125 76.14648438 C12.4711675 76.11357002 6.23562347 76.06348779 0 76 C0 75.34 0 74.68 0 74 C3.465 73.505 3.465 73.505 7 73 C8.08562311 69.74313066 8.1334243 67.35121023 8.14526367 63.92382812 C8.15164352 62.67243042 8.15802338 61.42103271 8.16459656 60.13171387 C8.16612505 58.76489297 8.16723911 57.39807156 8.16796875 56.03125 C8.171182 54.63024867 8.17454612 53.22924769 8.17805481 51.82824707 C8.18404102 48.89281435 8.18589517 45.95741105 8.18530273 43.02197266 C8.185201 39.25907002 8.19886712 35.4963556 8.21607494 31.73349762 C8.22718674 28.84075044 8.22922222 25.94804893 8.22869301 23.05528259 C8.22987383 21.66779429 8.23430133 20.28030483 8.24202538 18.89283752 C8.25181059 16.95397364 8.24768677 15.01505459 8.24291992 13.07617188 C8.24434494 11.97269409 8.24576996 10.86921631 8.24723816 9.7322998 C8.19947845 6.78196981 8.19947845 6.78196981 6 4 C2.94570927 2.78715124 2.94570927 2.78715124 0 2 C0 1.34 0 0.68 0 0 Z M19 5 C19 27.11 19 49.22 19 72 C43.69890422 73.65025063 43.69890422 73.65025063 64.5546875 63.57421875 C72.18759143 55.61853032 73.58756979 46.18266362 73.47485352 35.56982422 C73.24052686 29.4228063 72.13377632 24.36338111 69 19 C68.45666016 18.02160156 68.45666016 18.02160156 67.90234375 17.0234375 C63.60779515 10.18127532 57.47196575 7.49065525 50 5 C39.77 5 29.54 5 19 5 Z " fill="#F398AB" transform="translate(1054,134)"/>
<path d="M0 0 C7.47788153 7.00403557 11.59386465 15.16599163 12.203125 25.41796875 C12.36876983 38.73857416 10.1585585 47.8504631 1 58 C-10.99573745 68.25476317 -24.74399949 70.15370405 -40 69 C-51.49194747 67.08670652 -60.982247 61.46242867 -68 52.125 C-74.56294441 41.73760597 -75.83123219 29.80735481 -73.34375 17.84375 C-69.82439199 7.04296163 -62.65103179 -0.58426165 -52.94921875 -6.18359375 C-35.86439228 -14.71039014 -14.63657615 -11.9804111 0 0 Z M-57 7 C-63.23778352 16.79403712 -63.99690827 26.63741878 -63 38 C-60.76423018 48.00347297 -54.74266237 55.3513848 -46.24609375 60.7734375 C-38.72521208 64.88049288 -30.62570281 66.06379278 -22.29296875 63.8515625 C-12.01840229 60.03579506 -5.45723394 53.62237075 -0.76171875 43.89453125 C2.62051553 35.48230754 2.27188889 23.65865203 -0.4375 15.0625 C-4.32769066 6.0945868 -10.91533949 -0.16781062 -19.73828125 -4.16015625 C-33.96673341 -9.44360567 -47.35473107 -4.17460887 -57 7 Z " fill="#F398AC" transform="translate(670,143)"/>
<path d="M0 0 C1.03125 0.598125 2.0625 1.19625 3.125 1.8125 C12.09791543 8.63971826 17.65499695 16.61134057 19.72265625 27.85546875 C21.16559048 39.01280526 18.80808941 49.44629851 12.16015625 58.5078125 C4.65018048 67.60669815 -5.31787345 73.00172827 -17.13110352 74.21972656 C-30.90707202 74.9589173 -43.08364503 73.1109578 -54 64 C-62.9401648 55.45008049 -66.33048825 46.30194569 -67.3125 34.125 C-66.88959698 21.81105903 -61.79023051 11.96314015 -52.984375 3.56640625 C-38.55695141 -7.82217025 -15.8467417 -9.25531681 0 0 Z M-48.7890625 11.0703125 C-55.00616156 19.61499545 -57.10415577 29.56345912 -56 40 C-53.84724996 51.24770174 -48.2160239 59.27772374 -39 66 C-36.38612989 67.44937348 -33.90705217 68.32957518 -31 69 C-30.31421875 69.16371094 -29.6284375 69.32742187 -28.921875 69.49609375 C-21.61794377 70.77034075 -14.14212025 69.29655244 -7.66796875 65.70703125 C0.48873489 59.88972636 6.2448892 52.37146534 8.5859375 42.5390625 C10.24535069 32.36341558 8.74301619 22.28159647 3.421875 13.3515625 C-2.54824408 5.25694159 -9.11740166 0.96131567 -19 -1 C-30.87201291 -2.47893676 -41.05445986 2.1197898 -48.7890625 11.0703125 Z " fill="#F398AC" transform="translate(1254,138)"/>
<path d="M0 0 C8.16605644 7.96268722 11.86428534 17.82716397 12.3515625 29.05078125 C12.22716905 39.19575814 9.05162208 48.60063127 2.0390625 55.98828125 C1.17667969 56.91060547 1.17667969 56.91060547 0.296875 57.8515625 C-8.90441491 66.76650521 -20.45025648 69.29177747 -32.82617188 69.30297852 C-45.54005071 69.08828572 -55.30061134 64.83870508 -64.734375 56.40234375 C-72.73566839 48.07612474 -74.64343796 38.00246925 -74.48876953 26.86743164 C-74.22657787 20.6243848 -73.13613775 15.44254509 -69.9609375 9.98828125 C-69.4040625 8.95703125 -68.8471875 7.92578125 -68.2734375 6.86328125 C-60.21596174 -3.15412105 -50.6724626 -8.67750439 -38.0234375 -10.76171875 C-24.40495539 -12.04428128 -10.58750157 -8.73562408 0 0 Z M-56.45703125 5.6484375 C-63.29241003 14.55268464 -64.91870955 25.24241601 -63.55859375 36.2421875 C-61.28916743 46.75674851 -55.80065531 54.83891234 -46.9609375 60.98828125 C-39.3687858 65.07751939 -30.82435664 65.8108069 -22.50390625 63.82421875 C-12.83673102 60.6463762 -6.9577075 54.73562441 -1.9609375 45.98828125 C2.47704406 36.51461017 2.48727941 25.14529815 -0.921875 15.33203125 C-4.59786341 7.04032808 -10.20615351 -0.02514098 -18.5859375 -3.82421875 C-32.39150854 -8.68173449 -46.51469485 -5.38418122 -56.45703125 5.6484375 Z " fill="#F398AC" transform="translate(572.9609375,143.01171875)"/>
<path d="M0 0 C8.58 0 17.16 0 26 0 C26 0.66 26 1.32 26 2 C22.535 3.485 22.535 3.485 19 5 C18.89813343 12.09826323 18.82833918 19.19633619 18.78027344 26.29516602 C18.76022448 28.70734705 18.73297808 31.11947989 18.69824219 33.53149414 C18.64942949 37.00939873 18.62696317 40.48665772 18.609375 43.96484375 C18.58872986 45.03395493 18.56808472 46.1030661 18.54681396 47.20457458 C18.54439498 55.374348 20.18359334 61.40125816 25.25 67.875 C31.24028167 72.50385402 37.51104293 73.92975147 45 73 C51.0449598 71.7089407 55.75902686 69.63548227 60 65 C63.93574916 57.80070651 64.55056025 51.15876687 64.390625 43.0859375 C64.38213531 41.44245834 64.38213531 41.44245834 64.37347412 39.76577759 C64.35126804 36.30172104 64.30110039 32.83873846 64.25 29.375 C64.22991467 27.0117338 64.21166748 24.64845121 64.1953125 22.28515625 C64.15145517 16.52307746 64.08470281 10.76161549 64 5 C61.69 4.01 59.38 3.02 57 2 C57 1.34 57 0.68 57 0 C64.59 0 72.18 0 80 0 C80 0.66 80 1.32 80 2 C79.030625 2.45375 78.06125 2.9075 77.0625 3.375 C73.92920418 4.65786221 73.92920418 4.65786221 73 7 C72.90662335 8.58113522 72.87486546 10.16611014 72.87402344 11.75 C72.87021667 12.73863037 72.86640991 13.72726074 72.86248779 14.74584961 C72.86146057 15.81971924 72.86043335 16.89358887 72.859375 18 C72.84103522 20.27214535 72.82146385 22.54428102 72.80078125 24.81640625 C72.77190312 28.39974115 72.7500024 31.98245946 72.74951172 35.56591797 C72.74615794 39.02366887 72.71147761 42.47999777 72.671875 45.9375 C72.6789447 46.99517578 72.6860144 48.05285156 72.69329834 49.14257812 C72.55182934 57.87998099 70.19256103 65.12455747 63.875 71.375 C54.35494181 78.53538565 43.44838078 79.09252409 32 78 C24.68323291 76.78830609 18.21257304 74.05843669 13.53125 68.14453125 C8.23722779 60.18810834 7.68798072 52.72137693 7.5859375 43.37890625 C7.55688828 41.72905983 7.55688828 41.72905983 7.5272522 40.04588318 C7.46773092 36.55149967 7.42118073 33.05708274 7.375 29.5625 C7.33679499 27.18553294 7.2977418 24.80857935 7.2578125 22.43164062 C7.16205201 16.62121381 7.07692492 10.81070508 7 5 C4.69 4.01 2.38 3.02 0 2 C0 1.34 0 0.68 0 0 Z " fill="#F398AB" transform="translate(964,134)"/>
<path d="M0 0 C0 5.28 0 10.56 0 16 C-0.99 16 -1.98 16 -3 16 C-3.5878125 14.1128125 -3.5878125 14.1128125 -4.1875 12.1875 C-5.23512325 9.48472769 -5.92136524 8.07863476 -8 6 C-13.08691581 4.3043614 -19.02497592 3.51836746 -23.9765625 5.984375 C-26.74576364 8.19427936 -28.99796804 10.59309135 -30 14 C-30.48986709 19.29056455 -29.9063477 22.54965508 -27 27 C-22.79037906 31.72251729 -18.06320167 35.87961188 -13.28515625 40.01171875 C-10.39662983 42.52498362 -7.53313935 45.06332496 -4.6875 47.625 C-4.17155273 48.08044189 -3.65560547 48.53588379 -3.12402344 49.00512695 C2.00893674 53.65192199 4.57233693 57.83333982 5.2734375 64.6640625 C5.55714268 72.93515964 4.1039204 79.32395129 -1.45703125 85.66015625 C-7.83791182 91.43493735 -15.06314801 91.37013611 -23.22265625 91.2578125 C-29.86972084 90.80413488 -35.910254 89.49095235 -41 85 C-42.16364187 81.50907438 -41.92965003 79.1558004 -41.625 75.5 C-41.53476562 74.3553125 -41.44453125 73.210625 -41.3515625 72.03125 C-41 69 -41 69 -40 66 C-39.01 66 -38.02 66 -37 66 C-36.83564453 67.10408203 -36.83564453 67.10408203 -36.66796875 68.23046875 C-35.33777265 77.05894162 -35.33777265 77.05894162 -29.8125 83.75 C-24.62308905 86.05640487 -20.17472312 86.65566277 -14.8125 84.875 C-11.0874174 83.27644093 -8.59518291 81.14567626 -6 78 C-5.05503732 75.16511195 -4.7738001 73.14441383 -4.6875 70.1875 C-4.65011719 69.35605469 -4.61273437 68.52460938 -4.57421875 67.66796875 C-5.71986618 60.48927892 -12.11007449 55.79029502 -17.1875 51.125 C-17.94764404 50.41537109 -18.70778809 49.70574219 -19.4909668 48.97460938 C-23.35356798 45.38179946 -27.27156937 41.89221935 -31.3125 38.5 C-36.15526731 34.17341913 -38.59474274 30.39989514 -39.37109375 23.88671875 C-39.66351619 16.20398381 -38.88690721 10.25812869 -33.609375 4.4765625 C-24.57656464 -3.74804904 -11.18155159 -1.54228298 0 0 Z " fill="#F398AC" transform="translate(876,121)"/>
<path d="M0 0 C2.31 0.33 4.62 0.66 7 1 C8.90415046 1.08407483 10.81054776 1.12777685 12.71655273 1.12939453 C13.79134384 1.13254669 14.86613495 1.13569885 15.97349548 1.13894653 C17.11532791 1.1369223 18.25716034 1.13489807 19.43359375 1.1328125 C21.22145042 1.13424759 21.22145042 1.13424759 23.04542542 1.13571167 C25.55933688 1.13639042 28.07325013 1.13455745 30.5871582 1.13037109 C34.42077603 1.12502333 38.25427645 1.13032406 42.08789062 1.13671875 C44.53645859 1.13605782 46.98502648 1.13477636 49.43359375 1.1328125 C51.14330605 1.13584885 51.14330605 1.13584885 52.88755798 1.13894653 C58.68769345 1.12198557 64.26450793 0.87729027 70 0 C70 4.95 70 9.9 70 15 C69.01 15 68.02 15 67 15 C66.690625 14.030625 66.38125 13.06125 66.0625 12.0625 C65.30476658 9.15934208 65.30476658 9.15934208 64 8 C62.22130274 7.84235595 60.43681524 7.74899323 58.65234375 7.68359375 C57.57275391 7.64169922 56.49316406 7.59980469 55.38085938 7.55664062 C53.67639648 7.49766602 53.67639648 7.49766602 51.9375 7.4375 C50.79732422 7.39431641 49.65714844 7.35113281 48.48242188 7.30664062 C45.65507805 7.20017161 42.82764262 7.09815793 40 7 C40.06118087 15.42337194 40.13826434 23.84638337 40.23571491 32.26940632 C40.28046315 36.18047848 40.31970911 40.09144541 40.34643555 44.00268555 C40.37242461 47.77652088 40.4127949 51.54995219 40.46318626 55.32353783 C40.47988494 56.76399909 40.49138053 58.20453028 40.49761391 59.64507484 C40.50722148 61.66103774 40.53696102 63.67687441 40.56762695 65.69262695 C40.58428154 67.41471123 40.58428154 67.41471123 40.60127258 69.17158508 C40.76797872 72.00141898 40.76797872 72.00141898 42.39030457 73.85124207 C44.2349979 75.16770607 45.77943756 75.61714441 48 76 C48 76.66 48 77.32 48 78 C39.09 78 30.18 78 21 78 C21 77.34 21 76.68 21 76 C22.134375 75.71125 23.26875 75.4225 24.4375 75.125 C25.613125 74.75375 26.78875 74.3825 28 74 C29.3890952 71.2218096 29.16331551 68.91465255 29.20532227 65.80615234 C29.22526749 64.50495453 29.24521271 63.20375671 29.26576233 61.86312866 C29.28274673 60.4373995 29.29962553 59.01166907 29.31640625 57.5859375 C29.33697521 56.13147387 29.35797166 54.67701623 29.37937927 53.2225647 C29.43460604 49.39213912 29.4840126 45.56165955 29.53222656 41.73114014 C29.5824372 37.8233153 29.63812554 33.915569 29.69335938 30.0078125 C29.80094836 22.33860628 29.90188552 14.66933436 30 7 C21.42 7.33 12.84 7.66 4 8 C3.67 10.31 3.34 12.62 3 15 C2.01 15 1.02 15 0 15 C0 10.05 0 5.1 0 0 Z " fill="#F398AB" transform="translate(889,132)"/>
<path d="M0 0 C9.24 0 18.48 0 28 0 C28 0.66 28 1.32 28 2 C26.865625 2.45375 25.73125 2.9075 24.5625 3.375 C20.95278308 4.57095806 20.95278308 4.57095806 20 7 C19.87951849 9.06223352 19.82259073 11.12828629 19.79467773 13.19384766 C19.77473251 14.49504547 19.75478729 15.79624329 19.73423767 17.13687134 C19.71725327 18.5626005 19.70037447 19.98833093 19.68359375 21.4140625 C19.66302479 22.86852613 19.64202834 24.32298377 19.62062073 25.7774353 C19.56539396 29.60786088 19.5159874 33.43834045 19.46777344 37.26885986 C19.4175628 41.1766847 19.36187446 45.084431 19.30664062 48.9921875 C19.19905167 56.66139185 19.09760838 64.33066145 19 72 C22.5008943 71.91825827 26.00015493 71.80549732 29.5 71.6875 C30.48226563 71.66494141 31.46453125 71.64238281 32.4765625 71.61914062 C38.64925794 71.39280846 43.34052009 70.47920911 49 68 C49.99 67.67 50.98 67.34 52 67 C53.06716704 65.20067421 53.06716704 65.20067421 54 63 C54.98879205 61.32665961 55.98648336 59.65848177 57 58 C57.99 58.33 58.98 58.66 60 59 C59.02412745 61.64709159 58.04447855 64.29267447 57.0625 66.9375 C56.78470703 67.69224609 56.50691406 68.44699219 56.22070312 69.22460938 C54.11328125 74.88671875 54.11328125 74.88671875 53 76 C51.34261557 76.09346915 49.68125356 76.11744977 48.02124023 76.11352539 C46.96021591 76.11344986 45.89919159 76.11337433 44.80601501 76.11329651 C43.07479149 76.10555458 43.07479149 76.10555458 41.30859375 76.09765625 C39.5461306 76.09553383 39.5461306 76.09553383 37.74806213 76.09336853 C33.97784936 76.08774992 30.20769496 76.07519426 26.4375 76.0625 C23.88867273 76.0574874 21.33984453 76.05292408 18.79101562 76.04882812 C12.52732367 76.03777444 6.26366601 76.02101821 0 76 C0 75.34 0 74.68 0 74 C1.11375 73.7525 2.2275 73.505 3.375 73.25 C6.96245138 72.40798111 6.96245138 72.40798111 8.21138 70.28379822 C9.17986241 67.47912878 9.24705085 65.1781365 9.24291992 62.20922852 C9.24753487 60.46205284 9.24753487 60.46205284 9.25224304 58.67958069 C9.24505753 57.42535812 9.23787201 56.17113556 9.23046875 54.87890625 C9.23001053 53.58685776 9.22955231 52.29480927 9.2290802 50.96360779 C9.22751795 48.23081063 9.21924956 45.49814494 9.20581055 42.76538086 C9.18883801 39.27066535 9.18499595 35.77609441 9.18575573 32.28134251 C9.18541759 28.93884457 9.17657284 25.59639355 9.16796875 22.25390625 C9.16685593 21.00170792 9.1657431 19.74950958 9.16459656 18.45936584 C9.15821671 17.2914299 9.15183685 16.12349396 9.14526367 14.92016602 C9.14145187 13.89520523 9.13764008 12.87024445 9.13371277 11.81422424 C9.00516801 9.10877001 8.60740836 6.6354005 8 4 C5.36 3.34 2.72 2.68 0 2 C0 1.34 0 0.68 0 0 Z " fill="#F398AB" transform="translate(432,134)"/>
<path d="M0 0 C9.9 0 19.8 0 30 0 C30 0.66 30 1.32 30 2 C29.44570312 2.18175781 28.89140625 2.36351562 28.3203125 2.55078125 C27.59585937 2.80214844 26.87140625 3.05351562 26.125 3.3125 C25.40570312 3.55613281 24.68640625 3.79976562 23.9453125 4.05078125 C21.66005095 4.96335547 21.66005095 4.96335547 20 8 C19.68174078 10.740943 19.68174078 10.740943 19.70947266 13.87670898 C19.69671295 15.08483749 19.68395325 16.292966 19.67080688 17.53770447 C19.66858124 18.84397293 19.66635559 20.15024139 19.6640625 21.49609375 C19.65763505 22.84986004 19.65090673 24.20362494 19.64389038 25.55738831 C19.63191758 28.39449281 19.62820958 31.23147554 19.62939453 34.06860352 C19.62959782 37.70161584 19.60228671 41.33384677 19.56785011 44.96667385 C19.54559828 47.76255368 19.54155642 50.55824486 19.54261398 53.35420418 C19.53911025 55.34397797 19.51743727 57.3336929 19.49551392 59.323349 C19.50166718 60.53462967 19.50782043 61.74591034 19.51416016 62.99389648 C19.5098851 64.59248756 19.5098851 64.59248756 19.50552368 66.22337341 C20.12539513 69.7041297 21.22787027 70.86741431 24 73 C27.14481791 73.80315654 27.14481791 73.80315654 30 74 C30 74.66 30 75.32 30 76 C20.1 76 10.2 76 0 76 C0 75.34 0 74.68 0 74 C1.11375 73.71125 2.2275 73.4225 3.375 73.125 C7.00291092 72.30758671 7.00291092 72.30758671 9 70 C9.31433304 67.26977702 9.31433304 67.26977702 9.2746582 64.03735352 C9.28419022 62.78588028 9.29372223 61.53440704 9.30354309 60.24501038 C9.30328167 58.87297538 9.30234465 57.50094038 9.30078125 56.12890625 C9.30466693 54.72647474 9.30900134 53.3240444 9.31376648 51.9216156 C9.32123435 48.98017566 9.32093349 46.03885572 9.31567383 43.09741211 C9.30987996 39.32652049 9.32680484 35.55612017 9.3500185 31.78530979 C9.36474575 28.88825098 9.36562893 25.99131073 9.36250877 23.09422112 C9.36302255 21.70393844 9.36827095 20.31364923 9.37832069 18.92340279 C9.39064604 16.97965358 9.38196458 15.03580535 9.37231445 13.09204102 C9.37294388 11.98554703 9.3735733 10.87905304 9.3742218 9.73902893 C9.22183648 7.00175751 9.22183648 7.00175751 7.6759491 5.19346619 C5.29961179 3.50124401 2.78340313 2.80409424 0 2 C0 1.34 0 0.68 0 0 Z " fill="#F398AB" transform="translate(1148,134)"/>
</svg>
