<?xml version="1.0" encoding="UTF-8"?>
<svg version="1.1" xmlns="http://www.w3.org/2000/svg" width="1321" height="403">
<path d="M0 0 C5.04165766 3.97977005 8.44977002 8.215442 9.8203125 14.55859375 C10.23885522 19.89103991 10.05606425 25.22143604 9.8203125 30.55859375 C11.92440889 30.58560783 14.02860428 30.60499598 16.1328125 30.62109375 C17.30457031 30.63269531 18.47632813 30.64429688 19.68359375 30.65625 C22.85090445 30.70759273 22.85090445 30.70759273 25.8203125 29.55859375 C26.84143895 27.50771117 26.84143895 27.50771117 27.5390625 24.97265625 C27.83167969 24.04195312 28.12429688 23.11125 28.42578125 22.15234375 C28.72097656 21.17265625 29.01617188 20.19296875 29.3203125 19.18359375 C29.90559052 17.25652116 30.49902602 15.33190257 31.1015625 13.41015625 C31.36001953 12.55244629 31.61847656 11.69473633 31.88476562 10.81103516 C32.88688728 8.39830697 33.78793165 7.17834351 35.8203125 5.55859375 C38.62188698 4.62473559 40.47479053 4.3950478 43.3828125 4.37109375 C44.56037109 4.34982422 44.56037109 4.34982422 45.76171875 4.328125 C47.8203125 4.55859375 47.8203125 4.55859375 49.8203125 6.55859375 C50.49342601 14.10142459 50.12847158 21.34559664 47.8203125 28.55859375 C49.09261719 28.50638672 49.09261719 28.50638672 50.390625 28.453125 C61.43698721 28.19820895 71.35309614 29.93290134 81.8203125 33.55859375 C81.9453125 36.93359375 81.9453125 36.93359375 81.8203125 40.55859375 C79.8203125 42.55859375 79.8203125 42.55859375 76.25390625 42.74609375 C71.00132378 42.61338695 65.82551456 41.93436589 60.61914062 41.26953125 C55.31352236 40.62864552 50.16563309 40.47366313 44.8203125 40.55859375 C44.73467041 41.10862061 44.64902832 41.65864746 44.56079102 42.2253418 C43.14999612 50.23446586 40.5041502 57.7453788 37.7578125 65.37109375 C37.51686859 66.04990601 37.27592468 66.72871826 37.02767944 67.42810059 C33.61140957 77.05226365 29.95916471 86.5150069 25.46264648 95.69848633 C22.15744127 102.81194549 21.76479153 109.66636018 23.8203125 117.24609375 C24.3153125 118.39078125 24.3153125 118.39078125 24.8203125 119.55859375 C28.6434694 120.55279531 32.14781873 121.17493868 35.9296875 119.78125 C38.44146177 118.22791591 40.58178455 116.49033549 42.8203125 114.55859375 C43.64402344 113.8632251 43.64402344 113.8632251 44.484375 113.15380859 C52.28507791 106.44427544 57.65027447 100.41568884 60.77075195 90.53955078 C65.25482573 76.42815861 74.80934662 65.11754993 87.5234375 57.6875 C93.04132809 54.97547554 98.77564182 55.07358303 104.8203125 55.55859375 C108.40798192 56.90396978 109.47972642 58.08177324 111.6953125 61.18359375 C113.45408846 66.45992164 112.99222255 70.77122203 110.83984375 75.890625 C106.600565 83.94388269 100.97974445 89.86788617 93.5703125 95.05859375 C92.91861084 95.52563721 92.26690918 95.99268066 91.59545898 96.47387695 C89.67701313 97.84507307 87.75019041 99.2035514 85.8203125 100.55859375 C84.76457031 101.30496094 83.70882812 102.05132812 82.62109375 102.8203125 C80.36092182 104.40984854 78.09521619 105.99024838 75.8203125 107.55859375 C76.23240061 112.81271712 76.99748337 115.84195432 80.8203125 119.55859375 C85.42459162 122.17183325 89.93072967 122.27207099 95.03515625 121.01171875 C103.09792865 118.24136584 109.39865479 112.97706096 115.8203125 107.55859375 C116.69558594 106.84574219 117.57085938 106.13289063 118.47265625 105.3984375 C124.1859516 100.31255895 126.18613887 95.47628483 128.45703125 88.2578125 C133.53517126 74.47844691 143.6506996 63.0314137 156.8203125 56.55859375 C162.47154135 54.6974106 169.27220164 54.60305218 174.8203125 56.68359375 C177.93550113 59.60408309 179.6740751 62.27470962 179.953125 66.6328125 C179.40399792 75.88721882 174.07406101 83.08146478 167.8203125 89.55859375 C165.5021667 91.54127443 163.06748093 93.30919229 160.5703125 95.05859375 C159.91861084 95.52563721 159.26690918 95.99268066 158.59545898 96.47387695 C156.67701313 97.84507307 154.75019041 99.2035514 152.8203125 100.55859375 C151.76457031 101.30496094 150.70882812 102.05132812 149.62109375 102.8203125 C147.36092182 104.40984854 145.09521619 105.99024838 142.8203125 107.55859375 C143.23240061 112.81271712 143.99748337 115.84195432 147.8203125 119.55859375 C152.42459162 122.17183325 156.93072967 122.27207099 162.03515625 121.01171875 C168.55421162 118.771784 173.91873685 115.05251671 179.15014648 110.625 C180.95218361 109.10026739 182.75287973 107.60910748 184.64234924 106.19371033 C199.2471302 95.2133972 202.18529565 80.5260717 205.68713379 63.54827881 C206.27907594 60.73959353 206.92148249 57.94361972 207.56610298 55.14663315 C211.11758882 39.71721615 213.89766778 24.39157776 214.8203125 8.55859375 C216.3913184 8.0590547 217.96471649 7.56703547 219.5390625 7.078125 C220.41498047 6.80331299 221.29089844 6.52850098 222.19335938 6.24536133 C225.93279098 5.26775714 228.97192369 5.21498761 232.8203125 5.55859375 C235.16446329 7.90274454 235.14890749 8.37805936 235.21875 11.57421875 C235.03083113 19.7096602 232.54194461 27.50077374 230.4453125 35.30859375 C229.71133074 38.09161854 228.98122959 40.87564664 228.2510376 43.65966797 C227.70839576 45.72679591 227.16418844 47.79351339 226.61859131 49.85986328 C224.28661669 58.71058671 222.0323907 67.5797697 219.79371262 76.45441437 C218.58152295 81.25559012 217.36314957 86.05520126 216.14512825 90.85490036 C215.12993988 94.85714409 214.11816162 98.86019039 213.11358643 102.8651123 C212.1554229 106.68360393 211.1871384 110.49939343 210.21149063 114.31345367 C209.84924929 115.73706049 209.49069772 117.16161175 209.13601303 118.58712006 C208.64658454 120.55205429 208.14297397 122.51343978 207.63867188 124.47460938 C207.3587439 125.58179321 207.07881592 126.68897705 206.79040527 127.82971191 C205.82251246 130.55240523 205.11928758 131.8492603 202.8203125 133.55859375 C200.6640625 133.73828125 200.6640625 133.73828125 198.3203125 133.43359375 C197.546875 133.34851563 196.7734375 133.2634375 195.9765625 133.17578125 C193.43758813 132.44904583 192.40779404 131.65186593 190.8203125 129.55859375 C190.18307038 123.44106942 191.60821452 117.54332753 192.8203125 111.55859375 C192.15386719 112.19925781 191.48742187 112.83992188 190.80078125 113.5 C184.55102336 119.36515741 178.29573496 124.27877173 170.8203125 128.55859375 C170.11003906 128.96980469 169.39976562 129.38101563 168.66796875 129.8046875 C160.47405393 134.23426917 151.39721804 136.02480496 142.3203125 133.43359375 C134.20082544 130.43711638 130.3480218 125.55044392 126.765625 117.828125 C126.04569079 116.09968791 125.41241047 114.33488765 124.8203125 112.55859375 C124.22605469 113.12707031 123.63179687 113.69554687 123.01953125 114.28125 C117.02514443 119.86544549 110.90999716 124.45853515 103.8203125 128.55859375 C103.10875 128.97109375 102.3971875 129.38359375 101.6640625 129.80859375 C93.46760896 134.23207661 84.39780372 136.02497216 75.3203125 133.43359375 C65.9010189 129.94733568 62.07917285 123.325918 57.8203125 114.55859375 C56.98628906 115.42742187 56.15226563 116.29625 55.29296875 117.19140625 C39.19094036 133.78581468 39.19094036 133.78581468 29.1328125 134.18359375 C22.10193635 133.82345574 18.98431786 131.72259911 14.0703125 126.80859375 C9.53669568 120.26003613 9.52897684 114.01099666 10.4453125 106.41015625 C10.58864014 105.11665756 10.58864014 105.11665756 10.73486328 103.79702759 C11.92042034 93.75090214 13.84889867 83.84937832 15.8203125 73.93359375 C16.18051394 72.08609844 16.5398912 70.23844224 16.8984375 68.390625 C18.51016041 60.10751253 20.16280607 51.83264914 21.8203125 43.55859375 C19.08886584 43.61882411 16.36272053 43.70591528 13.6328125 43.80859375 C12.86388672 43.82277344 12.09496094 43.83695313 11.30273438 43.8515625 C6.14956159 44.07272871 3.70848595 44.94120381 -0.1796875 48.55859375 C-5.58218081 50.94172952 -10.48328027 50.57580933 -16.1796875 49.55859375 C-15.35379222 45.52203059 -13.73249727 41.79388556 -12.1796875 37.99609375 C-8.50985398 28.96864951 -6.07744644 20.46489005 -9.4921875 10.87109375 C-11.13692294 8.33783273 -11.13692294 8.33783273 -14.1796875 6.55859375 C-24.57183766 6.55859375 -34.00822856 11.57763875 -41.4921875 18.640625 C-46.02316818 23.79042017 -49.1796875 29.60793411 -49.1796875 36.55859375 C-47.55409217 48.32722664 -42.28684885 56.74532574 -33.8046875 64.87109375 C-22.31520039 75.98128555 -15.28961217 88.99037366 -14.71337891 105.19287109 C-14.5006874 122.49486246 -18.86404931 141.02894812 -31.25 153.8828125 C-39.72532529 161.24296341 -50.58145538 165.34650427 -61.88671875 164.9140625 C-68.4648401 163.8942856 -75.60888742 161.5211767 -80.1796875 156.55859375 C-86.13682481 148.3656157 -90.18937668 138.8574234 -89.1796875 128.55859375 C-88.38527455 124.87540644 -87.66440784 123.04331409 -84.9921875 120.37109375 C-79.20884695 116.64405206 -73.13510545 114.27552442 -66.1796875 114.55859375 C-64.6946875 115.54859375 -64.6946875 115.54859375 -63.1796875 116.55859375 C-63.8190625 117.56921875 -64.4584375 118.57984375 -65.1171875 119.62109375 C-68.60640943 125.82967369 -68.46247941 131.33686007 -66.90234375 138.125 C-65.44819665 143.02193861 -63.67384637 146.47193275 -59.4296875 149.55859375 C-54.07482514 151.20624371 -50.17529044 150.45457874 -45.1171875 148.18359375 C-37.33378888 141.22821626 -32.04185008 130.74920742 -30.80078125 120.3984375 C-30.32688133 107.57256537 -35.08641626 94.68498018 -43.4375 84.91796875 C-45.1226048 83.11136736 -46.81555257 81.31205475 -48.515625 79.51953125 C-60.30391997 66.41758464 -67.99126639 53.0024298 -67.5546875 35.1171875 C-66.98038212 25.20426645 -62.07433896 16.54147658 -55.1796875 9.55859375 C-41.08453612 -2.90321391 -17.34214499 -11.46819265 0 0 Z M88.46484375 68.953125 C81.29678272 75.9509233 78.24566867 85.08313393 75.8203125 94.55859375 C84.58445555 90.48316831 92.60067907 83.32710365 97.3203125 74.87109375 C97.91226998 72.13329041 97.58455016 70.23342556 96.8203125 67.55859375 C93.44292106 65.9997977 91.38699645 66.7855535 88.46484375 68.953125 Z M155.46484375 68.953125 C148.29678272 75.9509233 145.24566867 85.08313393 142.8203125 94.55859375 C151.58445555 90.48316831 159.60067907 83.32710365 164.3203125 74.87109375 C164.91226998 72.13329041 164.58455016 70.23342556 163.8203125 67.55859375 C160.44292106 65.9997977 158.38699645 66.7855535 155.46484375 68.953125 Z " fill="#E12E17" transform="translate(717.1796875,119.44140625)"/>
<path d="M0 0 C2.46203724 0.00849899 4.92173561 -0.02034276 7.38354492 -0.05200195 C30.96134785 -0.15567922 51.74846029 7.87432601 68.8034668 24.43041992 C85.73091341 41.72043567 92.04599403 64.99006078 91.8112793 88.55541992 C90.88663707 112.79077929 81.9661476 133.59610084 64.6628418 150.44604492 C63.91131836 151.19499023 63.15979492 151.94393555 62.38549805 152.71557617 C46.25040446 167.97534823 25.28195603 172.88265084 3.6628418 172.82104492 C2.97886322 172.82083344 2.29488464 172.82062195 1.59017944 172.82040405 C-22.43289537 172.74634434 -43.46151406 166.45425926 -61.0246582 149.32104492 C-70.31107105 139.91372598 -77.07253722 128.9890478 -81.3371582 116.44604492 C-81.7290332 115.37354492 -82.1209082 114.30104492 -82.5246582 113.19604492 C-89.47832316 90.78979116 -87.25504263 64.83048661 -76.5378418 44.10424805 C-65.48167147 23.74107745 -48.73403182 9.40363161 -26.57495117 2.59765625 C-17.66685316 0.29833779 -9.13909886 -0.04791495 0 0 Z M-23.9621582 20.94604492 C-32.18100186 31.01460513 -35.95299837 42.9004529 -38.3371582 55.44604492 C-38.56274414 56.60620117 -38.78833008 57.76635742 -39.02075195 58.96166992 C-43.74724205 89.08082061 -42.33196455 125.05529372 -25.16137695 151.23901367 C-20.02008732 158.11173418 -12.04623195 162.49026576 -3.72387695 163.88354492 C6.71196949 165.18294993 16.09879157 163.49212815 24.64331055 157.14916992 C39.44341515 144.6678438 43.86126288 124.97199838 45.6628418 106.44604492 C45.81091679 103.58751425 45.8490835 100.73386389 45.8659668 97.87182617 C45.87298111 97.07378571 45.87999542 96.27574524 45.88722229 95.45352173 C45.90464651 92.88847159 45.91107509 90.32365208 45.9128418 87.75854492 C45.91351654 86.88432892 45.91419128 86.01011292 45.91488647 85.10940552 C45.88589054 61.49614451 44.91688096 36.3062647 27.7878418 18.07104492 C20.79755121 11.50440831 12.76380197 8.78689101 3.22143555 8.32885742 C-7.68035868 8.82817624 -16.46580914 13.18375 -23.9621582 20.94604492 Z " fill="#FFC89E" transform="translate(1118.337158203125,124.553955078125)"/>
<path d="M0 0 C0.680625 -0.03738281 1.36125 -0.07476562 2.0625 -0.11328125 C4 0.3125 4 0.3125 5.59179688 2.04199219 C8.06394646 6.02794766 7.52981605 10.29637261 7.5 14.875 C7.49033203 16.41667847 7.49033203 16.41667847 7.48046875 17.98950195 C7.24541142 27.99412951 5.29095653 36.89942516 2 46.3125 C1.72124023 47.11220215 1.44248047 47.9119043 1.15527344 48.73583984 C-4.13354554 63.50997701 -11.16432367 77.61789787 -19.25 91.05859375 C-23.52803851 99.01307161 -23.31321027 108.47301008 -23 117.3125 C-19.4472101 117.84163892 -17.17954309 117.95838573 -13.98828125 116.2109375 C-3.78590217 108.5544386 5.17654457 98.77380227 13 88.75 C15.19170161 86.07886366 17.45032106 83.64553955 20 81.3125 C22.25 81.3125 22.25 81.3125 24 82.3125 C25 85.3125 25 85.3125 24.171875 87.3359375 C19.890229 94.41712127 14.82316528 100.57349821 9.36523438 106.75927734 C8.10954124 108.1878753 6.87406113 109.63417328 5.640625 111.08203125 C-2.12504629 120.04559864 -11.64600484 129.93883528 -24.0625 131.0625 C-28.22544334 130.8828969 -30.14439353 129.82840039 -33 126.8125 C-36.0476599 122.79675989 -37.2058628 119.25379815 -38 114.3125 C-38.60585938 114.90417969 -39.21171875 115.49585938 -39.8359375 116.10546875 C-48.41884599 124.19981168 -55.19796844 128.90985147 -67.23828125 128.78125 C-70.46104798 128.23424575 -72.37349817 127.24189946 -75 125.3125 C-77.80644663 121.06273795 -79.44489207 117.16964328 -81 112.3125 C-81.53367187 112.95316406 -82.06734375 113.59382813 -82.6171875 114.25390625 C-89.61340298 122.37581039 -97.71671349 130.73446139 -108.9375 131.625 C-112.92026158 131.50499212 -115.63287721 130.53174002 -119 128.3125 C-122.38157815 124.65673984 -123.90540121 122.0997991 -124.171875 117.06518555 C-123.99471815 113.19717721 -123.30176252 109.99039399 -122.25 106.26953125 C-121.88508695 104.93433486 -121.5205146 103.59904532 -121.15625 102.26367188 C-120.58234971 100.20011968 -120.00372454 98.13809995 -119.41796875 96.07788086 C-116.96597748 87.39687264 -115.38092366 79.42130551 -116 70.3125 C-122.1709021 71.57186778 -125.70231483 73.73002846 -130 78.3125 C-130.78632813 79.11042969 -131.57265625 79.90835938 -132.3828125 80.73046875 C-140.3120506 90.1024887 -142.66552978 100.80195068 -145.13647461 112.55834961 C-147.54361645 123.67078651 -147.54361645 123.67078651 -150.90234375 126.66015625 C-153.80609087 128.2090655 -156.07702712 129.16707492 -159.3125 129.6875 C-160.17488281 129.83960938 -161.03726563 129.99171875 -161.92578125 130.1484375 C-162.61027344 130.20257813 -163.29476562 130.25671875 -164 130.3125 C-164.33 129.9825 -164.66 129.6525 -165 129.3125 C-164.94921875 127.34375 -164.94921875 127.34375 -164.6875 124.8125 C-164.60886719 123.9978125 -164.53023438 123.183125 -164.44921875 122.34375 C-163.84734636 118.28241979 -162.93055419 114.30954082 -162 110.3125 C-162.78503906 111.27671875 -163.57007813 112.2409375 -164.37890625 113.234375 C-165.43953788 114.5108874 -166.50076783 115.78690283 -167.5625 117.0625 C-168.07619141 117.69671875 -168.58988281 118.3309375 -169.11914062 118.984375 C-173.30517583 123.97641698 -178.24089544 128.46761193 -185 129.3125 C-189.99458188 129.67574232 -193.04228769 129.50065714 -197 126.3125 C-199.50166858 122.88428751 -200.77701408 119.35776112 -202 115.3125 C-202.44988281 115.83199219 -202.89976562 116.35148437 -203.36328125 116.88671875 C-210.30968372 124.41778836 -218.61571847 128.79763859 -228.875 129.625 C-233.22766244 129.56015587 -235.67206891 128.17606861 -239 125.3125 C-243.86161002 118.606831 -243.60404064 111.32898215 -243 103.3125 C-239.76416058 85.98321541 -230.77167709 69.71399933 -216.8125 58.75 C-215.55941672 57.91038347 -214.28891016 57.09600763 -213 56.3125 C-212.37867188 55.90386719 -211.75734375 55.49523437 -211.1171875 55.07421875 C-205.65326247 51.85559085 -200.2371138 51.34270487 -194 52.3125 C-190.85216842 53.62819523 -188.56459435 55.1833113 -187 58.3125 C-186.76666667 64.84583333 -186.76666667 64.84583333 -188 67.3125 C-185.69 67.6425 -183.38 67.9725 -181 68.3125 C-182.16621148 78.19918838 -184.08199775 87.82499061 -186.32299805 97.51953125 C-187.80136328 104.21718292 -188.28739889 110.45946498 -188 117.3125 C-179.6194327 116.81340914 -175.91423628 112.0812867 -170.65429688 106.16943359 C-169.54664763 104.92610712 -168.42262208 103.69718855 -167.28320312 102.48291016 C-156.72400003 91.11305957 -153.19869379 79.85803645 -150.68505859 64.67822266 C-149.91630881 62.02348803 -149.17519032 60.98152636 -147 59.3125 C-144.21398777 58.38382926 -142.38933911 58.14907783 -139.5 58.125 C-138.33984375 58.10373047 -138.33984375 58.10373047 -137.15625 58.08203125 C-135 58.3125 -135 58.3125 -132 60.3125 C-132.33 62.6225 -132.66 64.9325 -133 67.3125 C-132.5153125 66.85359375 -132.030625 66.3946875 -131.53125 65.921875 C-124.06413884 59.08659632 -118.19548341 55.40288672 -107.78515625 55.71875 C-103.8561597 56.55634814 -102.26373006 58.28654354 -99.98828125 61.48828125 C-94.70957879 71.23197314 -98.46867306 83.85641837 -101.41796875 93.80151367 C-101.70607422 94.7660144 -101.70607422 94.7660144 -102 95.75 C-102.7618675 98.34974503 -103.50817962 100.95294965 -104.25 103.55859375 C-104.58515625 104.68966553 -104.9203125 105.8207373 -105.265625 106.98608398 C-106.04669789 110.52402218 -106.12834441 113.70080822 -106 117.3125 C-98.54885298 116.61159616 -95.11641517 112.39038795 -90 107.3125 C-89.1853125 106.55582031 -88.370625 105.79914063 -87.53125 105.01953125 C-81.77120752 99.28828898 -79.41290816 93.59462425 -77.16015625 85.9921875 C-73.12405522 73.19081654 -64.90972822 62.99226499 -53.26171875 56.37109375 C-48.04190751 53.92796966 -42.68765355 53.6655631 -37 54.3125 C-32.53428987 56.5047577 -30.12967843 58.81651221 -28 63.3125 C-28 63.9725 -28 64.6325 -28 65.3125 C-27.34 65.3125 -26.68 65.3125 -26 65.3125 C-25.88446777 64.02786865 -25.76893555 62.7432373 -25.64990234 61.41967773 C-25.08193143 56.33726177 -23.92719087 51.52905874 -22.6015625 46.59765625 C-22.24812271 45.25398232 -22.24812271 45.25398232 -21.88754272 43.88316345 C-21.39121758 42.00083103 -20.89187558 40.1192917 -20.38964844 38.23852539 C-19.62843573 35.38786643 -18.87588075 32.53503662 -18.125 29.68164062 C-17.63852356 27.84101289 -17.15156032 26.00051373 -16.6640625 24.16015625 C-16.44207184 23.32130386 -16.22008118 22.48245148 -15.99136353 21.61817932 C-15.55836183 19.99808914 -15.11894026 18.37969923 -14.67266846 16.76321411 C-14.19986321 15.04065602 -13.74643796 13.31271844 -13.30731201 11.58126831 C-13.06845276 10.69134186 -12.82959351 9.80141541 -12.58349609 8.88452148 C-12.27150772 7.67783058 -12.27150772 7.67783058 -11.95321655 6.44676208 C-10.76464965 3.78554804 -9.46597604 2.81998581 -7 1.3125 C-4.41679994 0.45143331 -2.66678376 0.09596381 0 0 Z M-46.1875 63.625 C-56.93743856 70.32390908 -63.69353342 84.67582304 -66.5 96.6875 C-67.38389609 102.52509944 -66.94698447 107.78720807 -64.875 113.3125 C-63.04604114 115.55667343 -63.04604114 115.55667343 -59.875 116.5 C-49.29639427 115.98813198 -41.46485033 105.17895063 -34.78515625 97.8984375 C-32.69130717 94.86533446 -32.22919224 92.63387449 -31.75 89 C-31.60046875 87.93136719 -31.4509375 86.86273438 -31.296875 85.76171875 C-31.19890625 84.95347656 -31.1009375 84.14523438 -31 83.3125 C-31.99 82.9825 -32.98 82.6525 -34 82.3125 C-34.09796875 81.35988281 -34.1959375 80.40726563 -34.296875 79.42578125 C-34.44640625 78.17152344 -34.5959375 76.91726562 -34.75 75.625 C-34.88921875 74.38363281 -35.0284375 73.14226562 -35.171875 71.86328125 C-36.0790915 67.97337652 -37.19319554 66.11410668 -40 63.3125 C-43.05769342 61.93014671 -43.05769342 61.93014671 -46.1875 63.625 Z M-209.47949219 67.78369141 C-211.94932613 70.26700871 -213.78770808 73.03112554 -215.625 76 C-216.01107422 76.61214355 -216.39714844 77.22428711 -216.79492188 77.85498047 C-219.82538278 82.77497748 -222.26166175 87.78706772 -224 93.3125 C-224.18820312 93.90675781 -224.37640625 94.50101563 -224.5703125 95.11328125 C-225.20683997 98.37114457 -225.2907194 101.55888268 -225.375 104.875 C-225.41238281 105.54724609 -225.44976562 106.21949219 -225.48828125 106.91210938 C-225.58319207 109.13358351 -225.58319207 109.13358351 -225 112.3125 C-222.85445978 114.53153093 -222.85445978 114.53153093 -220 115.3125 C-212.30120528 113.66484128 -206.56346176 107.22586923 -202.43945312 100.94458008 C-200.01863032 96.51803825 -199.05301077 91.91280089 -198.0625 87 C-197.84271484 86.02482422 -197.62292969 85.04964844 -197.39648438 84.04492188 C-196.0534729 78.16350148 -196.0534729 78.16350148 -197 72.3125 C-198.98 72.6425 -200.96 72.9725 -203 73.3125 C-202.67 72.6525 -202.34 71.9925 -202 71.3125 C-201.95977609 68.9795134 -201.95679753 66.64543334 -202 64.3125 C-205.60113466 64.3125 -206.83890213 65.46359298 -209.47949219 67.78369141 Z " fill="#E12D17" transform="translate(578,122.6875)"/>
<path d="M0 0 C0.82072262 -0.00538554 1.64144525 -0.01077108 2.48703825 -0.01631981 C5.21129302 -0.03051958 7.93505638 -0.02351558 10.65933228 -0.01637268 C12.62308642 -0.02208045 14.58683725 -0.02904629 16.55058289 -0.03717041 C21.86678275 -0.05507258 27.18281729 -0.05393886 32.49903822 -0.04822803 C36.94471722 -0.0451317 41.39036468 -0.05123363 45.83603919 -0.05726677 C56.32810773 -0.07130095 66.82009483 -0.06976011 77.31216431 -0.05836487 C88.11913522 -0.04688664 98.92585787 -0.06095699 109.73279607 -0.08776134 C119.02735778 -0.10994739 128.32184172 -0.11654911 137.61642802 -0.11068493 C143.16056873 -0.10732089 148.70455035 -0.10969365 154.24866867 -0.12693596 C159.46415879 -0.1424491 164.67928236 -0.13840102 169.89475822 -0.11963081 C171.80263768 -0.11595693 173.71054456 -0.11901817 175.61839867 -0.1295166 C190.58523476 -0.20555154 202.89629642 1.5336096 214.29849243 12.20018005 C226.80557558 25.56982066 226.66285648 41.59535295 226.61978149 58.83323669 C226.62249649 60.66935362 226.62606027 62.50546945 226.63040161 64.34158325 C226.63946672 69.29602618 226.63600593 74.25038518 226.62964344 79.20482945 C226.62455362 84.40733762 226.62928307 89.60983895 226.63241577 94.81234741 C226.63604643 103.54523499 226.63127964 112.27808865 226.62173462 121.01097107 C226.61084841 131.08687464 226.61438051 141.16269727 226.62538743 151.23859888 C226.63448191 159.91325796 226.63573513 168.58789276 226.63051009 177.26255506 C226.6274027 182.43324989 226.62694714 187.60390674 226.63358307 192.77459908 C226.63938752 197.63628593 226.6353032 202.49786903 226.62379456 207.35954475 C226.62116464 209.13680856 226.62188431 210.91408119 226.62631989 212.6913414 C226.66215085 228.51472212 225.79849778 242.62585629 215.36099243 255.38768005 C205.82806352 264.56393476 196.40300379 268.54323339 183.27220154 268.52812195 C182.46235815 268.53109307 181.65251477 268.53406419 180.81813067 268.53712535 C178.10690286 268.54579064 175.39571932 268.54731877 172.68447876 268.54881287 C170.73939927 268.5534426 168.79432069 268.55846747 166.84924316 268.56385803 C161.56597879 268.5769697 156.28272712 268.58342468 150.99944901 268.58786869 C147.6968883 268.59080162 144.39433105 268.59490687 141.09177208 268.59937286 C130.75370036 268.61304502 120.41563656 268.62271286 110.07755643 268.62657475 C98.15345973 268.63105387 86.22947775 268.64859622 74.30541593 268.67757535 C65.08230283 268.69921035 55.85922197 268.70928002 46.63608378 268.71061587 C41.13049608 268.71166266 35.62501627 268.71754367 30.11945534 268.73543549 C24.93774288 268.75194738 19.75621903 268.75405649 14.57448959 268.74529648 C12.67747555 268.74452776 10.78045123 268.74884699 8.88346291 268.75875473 C-4.12739079 268.82269869 -14.77930175 268.31662844 -25.63900757 260.38768005 C-26.23455444 259.96873474 -26.83010132 259.54978943 -27.44369507 259.1181488 C-35.94806235 252.5603367 -40.67057935 243.15013989 -42.16971302 232.68180466 C-42.66907173 228.57634189 -42.78186267 224.50176886 -42.77272034 220.3691864 C-42.77498589 219.60310995 -42.77725145 218.8370335 -42.77958566 218.04774261 C-42.78587273 215.50251074 -42.78509972 212.95733285 -42.78427124 210.41209412 C-42.78726605 208.57819043 -42.79066933 206.74428737 -42.79444885 204.91038513 C-42.80326063 199.94326602 -42.80562579 194.97616415 -42.80626464 190.00903797 C-42.80697679 186.9012592 -42.80911424 183.79348478 -42.81176186 180.68570709 C-42.82100621 169.83082807 -42.82509792 158.97596131 -42.8243103 148.12107849 C-42.82370988 138.02369817 -42.83425711 127.92637132 -42.85005397 117.82900453 C-42.86315633 109.14252544 -42.86849306 100.45606377 -42.86785489 91.76957488 C-42.86760068 86.58928148 -42.87040924 81.40903564 -42.88103294 76.22875214 C-42.89075929 71.35317055 -42.89076216 66.47768153 -42.88351631 61.60209656 C-42.88247607 59.82041538 -42.8847998 58.0387283 -42.89087677 56.25705719 C-42.94529217 39.18742488 -42.16081277 24.49945965 -29.87338257 11.42674255 C-21.45995601 3.74875538 -11.29869991 -0.09073914 0 0 Z M-23.45150757 17.88768005 C-24.17338257 18.71268005 -24.89525757 19.53768005 -25.63900757 20.38768005 C-26.31963257 21.10955505 -27.00025757 21.83143005 -27.70150757 22.57518005 C-34.6253372 32.62590048 -34.21223324 42.69708113 -34.15658569 54.43235779 C-34.16201255 56.3568525 -34.16913837 58.28134305 -34.17782593 60.20582581 C-34.1959963 65.41045614 -34.1890174 70.61476781 -34.17630959 75.81940341 C-34.16614784 81.27951304 -34.1755842 86.73959628 -34.18185425 92.19970703 C-34.18912203 101.36828992 -34.17956638 110.53674374 -34.16049194 119.70530701 C-34.13873144 130.28679965 -34.1457722 140.86798387 -34.16779757 151.44946903 C-34.18598407 160.55297869 -34.1884938 169.65639582 -34.17804289 178.7599178 C-34.17182499 184.18889832 -34.17092519 189.61773417 -34.18418884 195.04670525 C-34.19579383 200.15306439 -34.18763693 205.25902829 -34.16461182 210.365345 C-34.15934922 212.23290541 -34.16079624 214.10049941 -34.16966248 215.96804619 C-34.22665231 229.19789185 -33.51581207 241.42366315 -23.63900757 251.38768005 C-14.19162297 259.00325579 -4.60337875 260.54809531 7.26559448 260.52139282 C8.01942028 260.52365838 8.77324607 260.52592394 9.54991508 260.52825814 C12.0536886 260.53454369 14.55740724 260.53377231 17.06118774 260.53294373 C18.86553517 260.53593864 20.66988195 260.53934193 22.47422791 260.54312134 C27.36077113 260.55193215 32.24729683 260.55429823 37.13384724 260.55493712 C40.19137312 260.55564933 43.24889459 260.55778689 46.30641937 260.56043434 C56.98623435 260.56967839 67.66603687 260.57377044 78.34585571 260.57298279 C88.27964168 260.57238238 98.21337329 260.58292942 108.14714551 260.59872645 C116.69349841 260.61182979 125.23983361 260.61716551 133.78619647 260.61652738 C138.88265315 260.6162732 143.9790615 260.6190802 149.07550812 260.62970543 C153.87229571 260.63943342 158.66898922 260.63943354 163.46578026 260.6321888 C165.21843542 260.63114875 166.9710966 260.63347106 168.72374153 260.63954926 C189.51223788 260.85785431 189.51223788 260.85785431 207.11099243 250.88768005 C207.85349243 250.06268005 208.59599243 249.23768005 209.36099243 248.38768005 C210.38192993 247.33580505 210.38192993 247.33580505 211.42349243 246.26268005 C218.3475699 235.98824252 217.94054779 225.1317926 217.8944397 213.24534607 C217.90150735 211.32232504 217.91025591 209.39930958 217.92054749 207.4763031 C217.94295591 202.2799415 217.9401218 197.08388571 217.93122602 191.88749433 C217.92609827 187.53872824 217.93342314 183.19001872 217.94069809 178.84125847 C217.95766989 168.57730329 217.95415856 158.31349689 217.93740845 148.04954529 C217.92048737 137.48334123 217.93632783 126.91755033 217.96863133 116.35139138 C217.99537477 107.25718345 218.00259046 98.16310375 217.99411625 89.06886047 C217.98920123 83.64708688 217.99132546 78.22556178 218.01190376 72.80381966 C218.03033577 67.70394857 218.0242105 62.60466921 217.99970436 57.50482941 C217.9947204 55.64090961 217.99812296 53.77694413 218.01085281 51.91306114 C218.0850393 40.11081677 217.34025379 29.97220576 210.17349243 20.01268005 C200.3120451 10.80866254 189.58891387 8.22443623 176.44966125 8.25396729 C175.31786421 8.25056895 175.31786421 8.25056895 174.16320258 8.24710196 C171.65709509 8.24081639 169.15104244 8.2415878 166.64492798 8.24241638 C164.83895804 8.2394215 163.03298873 8.23601821 161.22702026 8.23223877 C156.33641208 8.22342831 151.44582141 8.22106191 146.55520606 8.22042298 C143.49567786 8.21971083 140.43615407 8.21757338 137.37662697 8.21492577 C126.69148095 8.20568228 116.00634739 8.20158965 105.32119751 8.20237732 C95.37943915 8.20297792 85.43773508 8.19242701 75.49599046 8.17663366 C66.94455769 8.16353564 58.39314262 8.15819437 49.8416999 8.15883273 C44.74136272 8.15908704 39.64107383 8.15627278 34.54074669 8.14565468 C29.74149988 8.13593552 24.94234715 8.13592059 20.14309692 8.14317131 C18.38840916 8.1442124 16.63371542 8.14188273 14.87903786 8.13581085 C-5.80751771 8.04245326 -5.80751771 8.04245326 -23.45150757 17.88768005 Z " fill="#FFC99E" transform="translate(1047.6390075683594,60.61231994628906)"/>
<path d="M0 0 C3.24242475 6.48484951 -0.00609973 14.99415608 -1.8125 21.5 C-2.26314819 23.15394775 -2.26314819 23.15394775 -2.72290039 24.84130859 C-6.81408877 39.4409979 -11.91797193 53.72172391 -17 68 C-16.67 68.33 -16.34 68.66 -16 69 C-15.47792969 68.41992188 -14.95585937 67.83984375 -14.41796875 67.2421875 C-7.26892068 59.65493158 0.76372923 53.52627424 11.4375 52.75 C15.28751529 53.02017651 17.0112042 53.60896336 20 56 C23.09349376 60.90805194 22.79319262 66.41957408 22 72 C19.25256738 78.44326725 14.40089948 82.75444757 9 87 C8.34 87.66 7.68 88.32 7 89 C7.66 89.61875 8.32 90.2375 9 90.875 C11.7971001 95.2454689 11.5877932 98.9365814 11 104 C10.37400383 105.68236471 9.71247732 107.3523962 9 109 C8.92353835 111.3320802 8.90856701 113.66845878 9 116 C14.32342002 116.81898769 17.32773282 115.08153079 21.51171875 112.0859375 C29.60070664 105.30490212 36.05260014 96.90039546 42.22265625 88.3984375 C44 86 44 86 46 84 C49.125 83.875 49.125 83.875 52 84 C51.6034931 90.12999671 49.68109015 93.75060371 46.125 98.6875 C45.63539795 99.38157959 45.1457959 100.07565918 44.64135742 100.79077148 C36.36420522 112.29203251 24.68736156 128.06805965 10 131 C5.8118935 131.3895913 2.11906276 131.38923922 -1.875 130 C-4.98641777 127.07160681 -6.21847615 124.18220874 -7 120 C-7.05773775 114.57265128 -6.15089695 109.9739492 -4 105 C-3.6186926 102.67402489 -3.27539746 100.34087842 -3 98 C-3.680625 98.495 -4.36125 98.99 -5.0625 99.5 C-8.67208369 101.34319167 -10.99449813 101.44505576 -15 101 C-17.68168885 99.39098669 -17.96054846 98.1296265 -18.875 95.125 C-19.02602779 91.34930535 -18.35110647 89.91861492 -16 87 C-12.9624402 85.11303103 -10.60085827 84.7910883 -7.0625 84.6875 C-3.22744179 84.37167168 -2.20711936 84.16305141 0.9375 81.6875 C1.618125 80.800625 2.29875 79.91375 3 79 C3.598125 78.34 4.19625 77.68 4.8125 77 C6.29803406 74.4980479 6.30948462 72.86273276 6 70 C4.88898816 68.66351983 4.88898816 68.66351983 2.0625 68.875 C-2.82157931 69.68072388 -5.76465034 72.83743809 -9.18188477 76.21899414 C-10.99960825 78.01278157 -12.85604706 79.76854676 -14.75634766 81.47460938 C-23.48314312 89.88442877 -25.5656785 97.9819443 -27.625 109.6875 C-28.10372249 112.16603154 -28.59377595 114.64214785 -29.08432007 117.11836243 C-29.38228434 118.64562677 -29.67090941 120.17474962 -29.9491272 121.70573425 C-30.89765799 126.89765799 -30.89765799 126.89765799 -32 128 C-34.01964199 128.07244053 -36.04167124 128.08377188 -38.0625 128.0625 C-39.16722656 128.05347656 -40.27195312 128.04445312 -41.41015625 128.03515625 C-42.69212891 128.01775391 -42.69212891 128.01775391 -44 128 C-45.23940347 123.64156793 -44.66253286 120.54363011 -43.5625 116.1875 C-43.27503906 115.02605469 -42.98757812 113.86460937 -42.69140625 112.66796875 C-42.46324219 111.78753906 -42.23507813 110.90710938 -42 110 C-42.73605469 110.81984375 -43.47210938 111.6396875 -44.23046875 112.484375 C-45.21594842 113.57309539 -46.20163661 114.66162706 -47.1875 115.75 C-47.67025391 116.28882813 -48.15300781 116.82765625 -48.65039062 117.3828125 C-54.21200378 123.5043196 -58.96950589 127.55084874 -67.5 128.3125 C-71.67736171 127.93952128 -73.66277118 127.59562241 -77 125 C-78.69895747 121.4337673 -79.90577329 117.79117372 -81 114 C-81.36609375 114.43570313 -81.7321875 114.87140625 -82.109375 115.3203125 C-88.84035247 122.72438772 -97.90206075 127.61282925 -107.9375 128.25 C-111.76142023 128.17905528 -113.9929547 127.50587108 -117 125 C-122.62179739 117.50427015 -122.9619072 110.0572684 -122 101 C-118.64318426 83.3890586 -108.6172198 66.53863225 -94 56 C-87.27693899 51.58166726 -81.05908828 49.59787022 -73 51 C-69.85485582 52.32589412 -67.56611656 53.86776689 -66 57 C-65.76666667 63.53333333 -65.76666667 63.53333333 -67 66 C-64.03 66.495 -64.03 66.495 -61 67 C-60.4557554 76.00271275 -62.89026234 84.47615806 -64.8671875 93.203125 C-67.85035304 104.68168056 -67.85035304 104.68168056 -66 116 C-58.02914842 115.35026537 -53.93009483 109.71291395 -49 104 C-46.58994031 101.10454345 -44.24799475 98.16287837 -41.9375 95.1875 C-41.37732178 94.47078125 -40.81714355 93.7540625 -40.23999023 93.015625 C-39.71606689 92.32339844 -39.19214355 91.63117188 -38.65234375 90.91796875 C-38.18820068 90.30719482 -37.72405762 89.6964209 -37.24584961 89.06713867 C-34.12051014 83.88151271 -33.10947985 77.62571567 -31.72265625 71.7890625 C-31.51064072 70.90326508 -31.29862518 70.01746765 -31.08018494 69.10482788 C-30.63257277 67.23085622 -30.1863585 65.35655019 -29.74145508 63.48193359 C-29.07266554 60.66777495 -28.39698549 57.8553348 -27.72070312 55.04296875 C-23.59404796 37.77402439 -19.69986727 20.84122356 -20 3 C-13.45841601 -0.65111665 -7.36120371 -0.29887594 0 0 Z M-89.03125 66.83984375 C-98.08780682 76.77689915 -104.69232324 90.95782303 -105.0703125 104.5234375 C-104.8572904 108.39542746 -104.56145452 110.37049039 -101.9375 113.3125 C-98.31891197 114.15940358 -96.36046422 113.39777079 -93.1875 111.546875 C-80.59325079 102.64094163 -78.29683839 91.48742764 -75.515625 77.15234375 C-74.9192882 74.03892997 -74.9192882 74.03892997 -75 71 C-77.31 71 -79.62 71 -82 71 C-81.67 70.34 -81.34 69.68 -81 69 C-80.960008 67.00039988 -80.95653201 64.99952758 -81 63 C-84.77041113 63 -86.28658099 64.3801086 -89.03125 66.83984375 Z " fill="#E12D16" transform="translate(249,124)"/>
<path d="M0 0 C1.33333333 1 2.66666667 2 4 3 C5.99234111 3 7.98546268 2.9960989 9.9765625 2.92578125 C14.30044863 3.08437939 17.1584974 5.1584974 20.125 8.125 C34.9046175 30.78708017 32.45299487 66.88538483 27.54785156 92.42041016 C21.97712454 118.65049112 11.67361907 148.36419106 -11.5625 164.0625 C-20.38034996 169.21987301 -28.80302411 171.38628352 -38.875 169 C-47.13421843 166.2762152 -52.3451447 160.82334876 -56.375 153.25 C-70.082022 123.1780847 -62.38059768 83.74250256 -51.29003906 54.00878906 C-45.55213011 39.34406876 -38.30375092 25.94815259 -28 14 C-27.09314453 12.94232422 -27.09314453 12.94232422 -26.16796875 11.86328125 C-19.37154263 4.52568771 -10.28262903 -1.26167227 0 0 Z M-2.1875 17.1875 C-3.19876953 18.10595703 -3.19876953 18.10595703 -4.23046875 19.04296875 C-5.95573782 20.95104779 -6.98428141 22.65082522 -8 25 C-8.99 25 -9.98 25 -11 25 C-11.495 22.525 -11.495 22.525 -12 20 C-34.30760068 41.09438029 -43.10981778 79.05655708 -44.12548828 108.65722656 C-44.23670509 112.85455538 -44.2790952 117.05144938 -44.3125 121.25 C-44.32212769 121.93137024 -44.33175537 122.61274048 -44.3416748 123.3147583 C-44.57229716 140.80323893 -44.57229716 140.80323893 -37 156 C-34.85701707 158.15254366 -34.85701707 158.15254366 -32 159 C-24.80610302 158.29240358 -20.96564431 155.03586554 -16 150 C-15.41347656 149.43539062 -14.82695313 148.87078125 -14.22265625 148.2890625 C2.69867812 130.7154318 9.02911964 101.31795635 12 78 C12.11085937 77.16082031 12.22171875 76.32164062 12.3359375 75.45703125 C15.82776777 44.12643288 15.82776777 44.12643288 7 15 C2.75345005 13.30277691 1.04586487 14.15426603 -2.1875 17.1875 Z " fill="#E12E17" transform="translate(92,114)"/>
</svg>
