<?xml version="1.0" encoding="UTF-8"?>
<svg version="1.1" xmlns="http://www.w3.org/2000/svg" width="1295" height="281">
<path d="M0 0 C8.67408322 7.9110724 15.69755041 16.98598554 22.40087891 26.58984375 C23.29419922 27.86408203 23.29419922 27.86408203 24.20556641 29.1640625 C31.16650722 39.94411408 35.81660126 52.66518991 39.27587891 64.96484375 C39.46674072 65.6403125 39.65760254 66.31578125 39.85424805 67.01171875 C42.85158172 78.35459635 43.7652059 89.63820947 43.71337891 101.33984375 C43.70846436 102.65879639 43.7035498 103.97774902 43.69848633 105.33666992 C43.58138094 115.09725396 42.80445879 124.14162526 40.40087891 133.58984375 C40.16739746 134.58153564 40.16739746 134.58153564 39.92919922 135.59326172 C35.84377603 152.75448546 28.04996995 169.51708044 17.40087891 183.58984375 C16.71638672 184.49476563 16.03189453 185.3996875 15.32666016 186.33203125 C-7.88330448 215.75076561 -40.86401756 234.36104762 -78.12988281 238.89794922 C-115.52996189 242.88909329 -151.94284012 232.39339347 -181.36303711 208.99975586 C-209.93515688 185.60884095 -226.88806875 153.10647791 -231.59912109 116.58984375 C-232.51625932 99.3716805 -232.36164408 82.2586742 -227.59912109 65.58984375 C-227.38481445 64.82430176 -227.17050781 64.05875977 -226.94970703 63.27001953 C-220.70325226 41.55290566 -209.73202684 23.25811726 -194.59912109 6.58984375 C-193.78443359 5.69007812 -192.96974609 4.7903125 -192.13037109 3.86328125 C-140.73923498 -50.09741167 -54.05038374 -47.6633613 0 0 Z " fill="#2C5F3B" transform="translate(238.59912109375,37.41015625)"/>
<path d="M0 0 C0.5465625 0.43441406 1.093125 0.86882812 1.65625 1.31640625 C2.1821875 1.71988281 2.708125 2.12335938 3.25 2.5390625 C7.41468517 7.80276181 6.96344562 15.01415354 6.95703125 21.37890625 C6.96131638 22.32902588 6.9656015 23.27914551 6.97001648 24.25805664 C6.97573584 26.25829271 6.97627778 28.25854956 6.97192383 30.25878906 C6.96875976 33.30700301 6.99226744 36.35424924 7.01757812 39.40234375 C7.01985106 41.35286337 7.02055464 43.30338558 7.01953125 45.25390625 C7.028741 46.15826416 7.03795074 47.06262207 7.04743958 47.99438477 C6.99755814 54.86374854 5.8399343 59.57120313 1.46875 65.06640625 C-8.62833225 73.14407205 -23.12703644 71.97348049 -35.34375 71.31640625 C-43.27814991 70.39124895 -50.18891885 68.80356299 -55.34375 62.31640625 C-58.81850018 56.64707702 -58.51228217 49.9871784 -58.546875 43.55078125 C-58.55257507 42.71734192 -58.55827515 41.88390259 -58.56414795 41.02520752 C-58.57355946 39.26698053 -58.58011655 37.50873621 -58.58398438 35.75048828 C-58.59366944 33.08854681 -58.62472073 30.42738504 -58.65625 27.765625 C-58.78676858 7.07970562 -58.78676858 7.07970562 -52.65625 0.37890625 C-38.684003 -8.32079471 -13.87927376 -9.38027189 0 0 Z M-33.34375 17.31640625 C-33.65626372 20.49064149 -33.65626372 20.49064149 -33.609375 24.22265625 C-33.61128845 24.9031604 -33.6132019 25.58366455 -33.61517334 26.28479004 C-33.61653463 27.72388071 -33.61284205 29.16298369 -33.60449219 30.60205078 C-33.59379128 32.80789712 -33.60438872 35.01292906 -33.6171875 37.21875 C-33.61586589 38.61588722 -33.61330348 40.01302393 -33.609375 41.41015625 C-33.60711914 42.68568359 -33.60486328 43.96121094 -33.60253906 45.27539062 C-33.66346066 48.42643055 -33.66346066 48.42643055 -31.34375 50.31640625 C-26.24631404 51.49273763 -23.19249525 51.09701891 -18.34375 49.31640625 C-18.294373 44.79575197 -18.25804177 40.27525408 -18.23388672 35.75439453 C-18.22381882 34.21595527 -18.21016354 32.67753518 -18.19287109 31.13916016 C-18.16865683 28.92996492 -18.15727509 26.7210223 -18.1484375 24.51171875 C-18.13811493 23.82208038 -18.12779236 23.13244202 -18.11715698 22.42190552 C-18.11675522 20.71839719 -18.22183974 19.01554682 -18.34375 17.31640625 C-20.17486848 15.0656558 -20.17486848 15.0656558 -22.875 15.05078125 C-23.8546875 15.0559375 -24.834375 15.06109375 -25.84375 15.06640625 C-26.8234375 15.06125 -27.803125 15.05609375 -28.8125 15.05078125 C-31.51263152 15.0656558 -31.51263152 15.0656558 -33.34375 17.31640625 Z " fill="#DA7042" transform="translate(465.34375,105.68359375)"/>
<path d="M0 0 C2.87659826 -0.1356886 5.74673463 -0.23440753 8.625 -0.3125 C9.43324219 -0.35439453 10.24148438 -0.39628906 11.07421875 -0.43945312 C15.49092771 -0.52922363 17.50939636 -0.32339199 21.30078125 2.17578125 C23.87136129 4.86540407 26.26530362 7.57405398 28.5625 10.5 C31.5156967 14.24808565 34.57354951 17.67592149 38 21 C38.03758423 20.09906616 38.03758423 20.09906616 38.07592773 19.17993164 C38.1915528 16.47388563 38.31442936 13.76821717 38.4375 11.0625 C38.47681641 10.11697266 38.51613281 9.17144531 38.55664062 8.19726562 C38.61948242 6.84858398 38.61948242 6.84858398 38.68359375 5.47265625 C38.72025146 4.64000244 38.75690918 3.80734863 38.79467773 2.94946289 C39 1 39 1 40 0 C41.62257544 -0.0991657 43.24939831 -0.13079777 44.875 -0.1328125 C45.85984375 -0.13410156 46.8446875 -0.13539062 47.859375 -0.13671875 C48.89578125 -0.13285156 49.9321875 -0.12898438 51 -0.125 C52.55460937 -0.13080078 52.55460937 -0.13080078 54.140625 -0.13671875 C55.12546875 -0.13542969 56.1103125 -0.13414063 57.125 -0.1328125 C58.03507812 -0.13168457 58.94515625 -0.13055664 59.8828125 -0.12939453 C62 0 62 0 63 1 C63.09960152 3.20324974 63.12799757 5.4097349 63.12939453 7.61523438 C63.13202301 8.65179924 63.13202301 8.65179924 63.13470459 9.70930481 C63.13912254 12.00414507 63.13618533 14.29890889 63.1328125 16.59375 C63.13348556 18.18176285 63.13445559 19.76977559 63.13571167 21.35778809 C63.13718857 24.6901955 63.13503436 28.02257616 63.13037109 31.35498047 C63.1246738 35.6359851 63.12795285 39.91692705 63.13394356 44.19792938 C63.1375494 47.47833736 63.13641048 50.75873037 63.13381577 54.03913879 C63.13314656 55.6180675 63.1339747 57.19699754 63.13629532 58.77592468 C63.13882223 60.97890853 63.13498075 63.18178949 63.12939453 65.38476562 C63.12859894 66.64083618 63.12780334 67.89690674 63.12698364 69.19104004 C63 72 63 72 62 73 C60.37742456 73.0991657 58.75060169 73.13079777 57.125 73.1328125 C56.14015625 73.13410156 55.1553125 73.13539063 54.140625 73.13671875 C53.10421875 73.13285156 52.0678125 73.12898438 51 73.125 C49.44539063 73.13080078 49.44539063 73.13080078 47.859375 73.13671875 C46.87453125 73.13542969 45.8896875 73.13414062 44.875 73.1328125 C43.96492188 73.13168457 43.05484375 73.13055664 42.1171875 73.12939453 C40 73 40 73 39 72 C39 69.70833333 39 67.41666667 39 65.125 C38.70835222 56.50804052 34.96702213 52.07288865 29 46 C27.30590728 44.02198449 25.65778353 42.00881316 24 40 C23.97494385 40.96413818 23.9498877 41.92827637 23.92407227 42.92163086 C23.83014694 46.48687842 23.72989061 50.05192433 23.62768555 53.61694336 C23.58428015 55.16214289 23.54260929 56.70739214 23.50268555 58.25268555 C23.44511801 60.46939096 23.38138576 62.6858448 23.31640625 64.90234375 C23.29133751 65.94454323 23.29133751 65.94454323 23.26576233 67.00779724 C23.11387171 71.88612829 23.11387171 71.88612829 22 73 C20.36527118 73.08700342 18.72685945 73.10701063 17.08984375 73.09765625 C16.10048828 73.09443359 15.11113281 73.09121094 14.09179688 73.08789062 C13.05087891 73.07951172 12.00996094 73.07113281 10.9375 73.0625 C9.89271484 73.05798828 8.84792969 73.05347656 7.77148438 73.04882812 C5.1809334 73.03699913 2.59049441 73.02051689 0 73 C-1.43409227 70.13181547 -1.12729601 67.67629397 -1.12939453 64.47070312 C-1.13114685 63.80062729 -1.13289917 63.13055145 -1.13470459 62.44017029 C-1.1391135 60.22050401 -1.1361885 58.00091712 -1.1328125 55.78125 C-1.13348582 54.24190251 -1.13445607 52.70255513 -1.13571167 51.16320801 C-1.13718734 47.93512969 -1.13503828 44.70707902 -1.13037109 41.47900391 C-1.12467388 37.33600921 -1.12795358 33.19307929 -1.13394356 29.05008698 C-1.13755269 25.87086497 -1.13640896 22.69165838 -1.13381577 19.51243591 C-1.13314747 17.98457329 -1.13397152 16.45670927 -1.13629532 14.92884827 C-1.1388276 12.7956266 -1.13497311 10.66251065 -1.12939453 8.52929688 C-1.12859894 7.31399292 -1.12780334 6.09868896 -1.12698364 4.84655762 C-1 2 -1 2 0 0 Z " fill="#DA7042" transform="translate(1116,102)"/>
<path d="M0 0 C0.90151291 -0.00960754 1.80302582 -0.01921509 2.7318573 -0.02911377 C3.71406754 -0.03336365 4.69627777 -0.03761353 5.70825195 -0.04199219 C6.71362503 -0.04769226 7.71899811 -0.05339233 8.75483704 -0.05926514 C10.88928164 -0.06873396 13.02374098 -0.07525655 15.15820312 -0.07910156 C18.41538333 -0.08877468 21.67192403 -0.1197671 24.92895508 -0.15136719 C27.00121695 -0.15790021 29.07348335 -0.16314951 31.14575195 -0.16699219 C32.60388557 -0.18551239 32.60388557 -0.18551239 34.09147644 -0.20440674 C40.57935118 -0.18317997 44.72409246 0.88492726 50.0090332 4.84863281 C53.92136038 10.01849373 54.37849182 16.86937661 53.7590332 23.16113281 C53.10365791 26.62788434 52.345813 29.98757322 50.7590332 33.16113281 C51.6871582 33.69738281 52.6152832 34.23363281 53.5715332 34.78613281 C57.1415337 37.44613318 58.11530822 39.07763644 59.7590332 43.16113281 C60.11547852 46.48852539 60.11547852 46.48852539 60.0871582 50.05566406 C60.08200195 51.34021484 60.0768457 52.62476563 60.0715332 53.94824219 C60.0612207 54.60848389 60.0509082 55.26872559 60.0402832 55.94897461 C60.00885199 57.98537329 59.99927954 60.02099886 59.9934082 62.05761719 C59.9131305 72.00703552 59.9131305 72.00703552 58.7590332 73.16113281 C57.13645776 73.26029852 55.50963489 73.29193058 53.8840332 73.29394531 C52.89918945 73.29523438 51.9143457 73.29652344 50.8996582 73.29785156 C49.86325195 73.29398437 48.8268457 73.29011719 47.7590332 73.28613281 C46.20442383 73.29193359 46.20442383 73.29193359 44.6184082 73.29785156 C43.63356445 73.2965625 42.6487207 73.29527344 41.6340332 73.29394531 C40.72395508 73.29281738 39.81387695 73.29168945 38.8762207 73.29052734 C36.7590332 73.16113281 36.7590332 73.16113281 35.7590332 72.16113281 C35.61478833 70.77091704 35.53216131 69.3741598 35.4777832 67.97753906 C35.42170898 66.71006836 35.42170898 66.71006836 35.36450195 65.41699219 C35.31229492 64.0837793 35.31229492 64.0837793 35.2590332 62.72363281 C35.19025044 60.97476742 35.11752137 59.22605143 35.0402832 57.47753906 C35.00999023 56.69838135 34.97969727 55.91922363 34.94848633 55.11645508 C34.86951599 53.08303916 34.86951599 53.08303916 33.7590332 51.16113281 C31.20961947 50.84871911 28.75541807 50.6480986 26.1965332 50.53613281 C25.48561523 50.49746094 24.77469727 50.45878906 24.04223633 50.41894531 C22.28160896 50.32441498 20.52035593 50.24167465 18.7590332 50.16113281 C18.76688843 51.15294556 18.76688843 51.15294556 18.77490234 52.16479492 C18.79560976 55.14273133 18.80867333 58.12065263 18.8215332 61.09863281 C18.82991211 62.13955078 18.83829102 63.18046875 18.84692383 64.25292969 C18.85175781 65.73696289 18.85175781 65.73696289 18.85668945 67.25097656 C18.86454468 68.62564087 18.86454468 68.62564087 18.87255859 70.02807617 C18.7590332 72.16113281 18.7590332 72.16113281 17.7590332 73.16113281 C16.13645776 73.26029852 14.50963489 73.29193058 12.8840332 73.29394531 C11.89918945 73.29523438 10.9143457 73.29652344 9.8996582 73.29785156 C8.86325195 73.29398437 7.8268457 73.29011719 6.7590332 73.28613281 C5.20442383 73.29193359 5.20442383 73.29193359 3.6184082 73.29785156 C2.63356445 73.2965625 1.6487207 73.29527344 0.6340332 73.29394531 C-0.27604492 73.29281738 -1.18612305 73.29168945 -2.1237793 73.29052734 C-4.2409668 73.16113281 -4.2409668 73.16113281 -5.2409668 72.16113281 C-5.34056832 69.95788308 -5.36896437 67.75139791 -5.37036133 65.54589844 C-5.37211365 64.85485519 -5.37386597 64.16381195 -5.37567139 63.451828 C-5.38008934 61.15698774 -5.37715213 58.86222392 -5.3737793 56.56738281 C-5.37445235 54.97936997 -5.37542239 53.39135722 -5.37667847 51.80334473 C-5.37815536 48.47093731 -5.37600116 45.13855665 -5.37133789 41.80615234 C-5.3656406 37.52514771 -5.36891965 33.24420576 -5.37491035 28.96320343 C-5.3785162 25.68279545 -5.37737728 22.40240244 -5.37478256 19.12199402 C-5.37411336 17.54306531 -5.37494149 15.96413527 -5.37726212 14.38520813 C-5.37978902 12.18222429 -5.37594755 9.97934333 -5.37036133 7.77636719 C-5.36956573 6.52029663 -5.36877014 5.26422607 -5.36795044 3.97009277 C-5.16988997 -0.41113243 -3.97645104 0.03407245 0 0 Z M18.7590332 19.16113281 C18.7590332 23.12113281 18.7590332 27.08113281 18.7590332 31.16113281 C23.27890069 31.4327846 23.27890069 31.4327846 27.7590332 31.16113281 C30.07235806 27.69114552 30.09860883 26.23604033 29.7590332 22.16113281 C29.0990332 21.17113281 28.4390332 20.18113281 27.7590332 19.16113281 C24.72036522 18.74976079 21.83743617 19.02920126 18.7590332 19.16113281 Z " fill="#DA7042" transform="translate(984.240966796875,101.8388671875)"/>
<path d="M0 0 C1.15037498 -0.01354271 1.15037498 -0.01354271 2.32398987 -0.02735901 C3.94715461 -0.04187523 5.57037806 -0.05075166 7.19360352 -0.05444336 C9.67889782 -0.06634634 12.16171409 -0.11551717 14.64648438 -0.16601562 C16.22264411 -0.17547901 17.79881912 -0.18271445 19.375 -0.1875 C20.11882431 -0.20703232 20.86264862 -0.22656464 21.62901306 -0.24668884 C23.73217773 -0.22827148 23.73217773 -0.22827148 27.25390625 0.37109375 C29.09570312 2.53979492 29.09570312 2.53979492 30.25390625 5.37109375 C30.65875244 6.29889648 31.06359863 7.22669922 31.48071289 8.18261719 C32.76597593 11.49295838 34.04770157 14.8043636 35.31640625 18.12109375 C35.76306641 19.26320313 36.20972656 20.4053125 36.66992188 21.58203125 C40.98731318 32.81112075 42.56685724 42.21152238 42.4597168 54.18481445 C42.44123543 56.32840645 42.43920917 58.47157027 42.43945312 60.61523438 C42.40184687 71.07521252 42.40184687 71.07521252 41.25390625 73.37109375 C33.66390625 73.37109375 26.07390625 73.37109375 18.25390625 73.37109375 C16.72199828 70.30727781 17.15147012 67.10143509 17.19140625 63.74609375 C17.21203125 61.31234375 17.23265625 58.87859375 17.25390625 56.37109375 C11.97390625 56.37109375 6.69390625 56.37109375 1.25390625 56.37109375 C1.29347782 61.5917265 1.29347782 61.5917265 1.34399414 66.81225586 C1.3511457 68.66543134 1.30419145 70.51858683 1.25390625 72.37109375 C-0.40003492 74.02503492 -2.34924788 73.50109058 -4.62109375 73.50390625 C-5.6059375 73.50519531 -6.59078125 73.50648438 -7.60546875 73.5078125 C-8.641875 73.50394531 -9.67828125 73.50007813 -10.74609375 73.49609375 C-12.30070313 73.50189453 -12.30070313 73.50189453 -13.88671875 73.5078125 C-14.8715625 73.50652344 -15.85640625 73.50523437 -16.87109375 73.50390625 C-17.78117188 73.50277832 -18.69125 73.50165039 -19.62890625 73.50048828 C-21.74609375 73.37109375 -21.74609375 73.37109375 -22.74609375 72.37109375 C-23.01662703 67.90710813 -23.01770429 63.43678932 -23.04125977 58.96557617 C-23.0526397 57.46743215 -23.0728618 55.96932397 -23.1027832 54.47143555 C-23.31019838 44.0856128 -22.27536356 35.26792947 -18.74609375 25.37109375 C-18.36976807 24.31124268 -17.99344238 23.2513916 -17.60571289 22.15942383 C-16.48812819 19.12733696 -15.317081 16.12302175 -14.12109375 13.12109375 C-13.72664062 12.10402344 -13.3321875 11.08695313 -12.92578125 10.0390625 C-9.85338769 2.24390182 -8.66460225 0.06229908 0 0 Z M7.25390625 20.37109375 C5.60390625 25.65109375 3.95390625 30.93109375 2.25390625 36.37109375 C6.87390625 36.37109375 11.49390625 36.37109375 16.25390625 36.37109375 C15.61048659 34.07872416 14.96428365 31.78720344 14.31640625 29.49609375 C14.13400391 28.84511719 13.95160156 28.19414062 13.76367188 27.5234375 C12.73497932 23.8631289 12.73497932 23.8631289 11.25390625 20.37109375 C9.93390625 20.37109375 8.61390625 20.37109375 7.25390625 20.37109375 Z " fill="#DA7042" transform="translate(567.74609375,101.62890625)"/>
<path d="M0 0 C1.51815699 0.00015911 3.0363194 0.00585313 4.55444336 0.01586914 C5.35208603 0.01728409 6.1497287 0.01869904 6.97154236 0.02015686 C9.52916146 0.02577223 12.08669429 0.03832727 14.64428711 0.05102539 C16.37410356 0.05603841 18.10392137 0.06060166 19.83374023 0.06469727 C24.08312264 0.07574664 28.33244023 0.09302153 32.58178711 0.11352539 C34.97117258 4.73759684 37.15344607 9.31201875 38.90600586 14.22290039 C39.2946582 15.30700195 39.68331055 16.39110352 40.08374023 17.50805664 C40.4749707 18.61536133 40.86620117 19.72266602 41.26928711 20.86352539 C41.67211914 21.98629883 42.07495117 23.10907227 42.48999023 24.26586914 C45.09688763 31.57566185 46.73588108 37.32643175 46.71459961 45.12524414 C46.71555634 45.89407425 46.71651306 46.66290436 46.71749878 47.45503235 C46.71817766 49.07467735 46.71634373 50.69432511 46.7121582 52.31396484 C46.70678381 54.80255161 46.71212425 57.29095969 46.71850586 59.77954102 C46.71784546 61.35310912 46.71656508 62.92667712 46.71459961 64.50024414 C46.71662384 65.24811691 46.71864807 65.99598969 46.72073364 66.76652527 C46.69675334 71.99855916 46.69675334 71.99855916 45.58178711 73.11352539 C43.95921167 73.21269109 42.3323888 73.24432316 40.70678711 73.24633789 C39.72194336 73.24762695 38.73709961 73.24891602 37.72241211 73.25024414 C36.68600586 73.24637695 35.64959961 73.24250977 34.58178711 73.23852539 C33.02717773 73.24432617 33.02717773 73.24432617 31.44116211 73.25024414 C30.45631836 73.24895508 29.47147461 73.24766602 28.45678711 73.24633789 C27.54670898 73.24520996 26.63663086 73.24408203 25.69897461 73.24291992 C23.58178711 73.11352539 23.58178711 73.11352539 22.58178711 72.11352539 C22.50853275 69.41483489 22.4895636 66.74849983 22.51928711 64.05102539 C22.53991211 61.43165039 22.56053711 58.81227539 22.58178711 56.11352539 C16.97178711 56.11352539 11.36178711 56.11352539 5.58178711 56.11352539 C5.62135868 61.33415814 5.62135868 61.33415814 5.671875 66.5546875 C5.67902655 68.40786298 5.63207231 70.26101847 5.58178711 72.11352539 C3.95978196 73.73553054 2.1615568 73.24343289 -0.07446289 73.24633789 C-1.48405273 73.24827148 -1.48405273 73.24827148 -2.92211914 73.25024414 C-4.40518555 73.24444336 -4.40518555 73.24444336 -5.91821289 73.23852539 C-6.90692383 73.24239258 -7.89563477 73.24625977 -8.91430664 73.25024414 C-9.8540332 73.24895508 -10.79375977 73.24766602 -11.76196289 73.24633789 C-12.63014648 73.24520996 -13.49833008 73.24408203 -14.39282227 73.24291992 C-16.41821289 73.11352539 -16.41821289 73.11352539 -17.41821289 72.11352539 C-17.71379005 67.23986966 -17.73274745 62.36295773 -17.76831055 57.48120117 C-17.78466317 55.84433571 -17.81166893 54.20753518 -17.8503418 52.57104492 C-18.12269353 40.9735977 -16.80423433 31.89772019 -12.41821289 21.11352539 C-12.04035645 20.11595215 -11.6625 19.11837891 -11.27319336 18.09057617 C-10.27189471 15.45818189 -9.22963059 12.8471635 -8.16821289 10.23852539 C-7.81758789 9.36067383 -7.46696289 8.48282227 -7.10571289 7.57836914 C-4.10583429 0.13636261 -4.10583429 0.13636261 0 0 Z M12.58178711 20.11352539 C11.92813311 21.65189247 11.28425107 23.19441305 10.64428711 24.73852539 C10.10481445 26.02629883 10.10481445 26.02629883 9.55444336 27.34008789 C8.32680927 30.58701598 8.32680927 30.58701598 7.58178711 36.11352539 C11.87178711 36.11352539 16.16178711 36.11352539 20.58178711 36.11352539 C19.43566976 30.38293863 18.05784188 25.40327877 15.58178711 20.11352539 C14.59178711 20.11352539 13.60178711 20.11352539 12.58178711 20.11352539 Z " fill="#DA7042" transform="translate(792.418212890625,101.886474609375)"/>
<path d="M0 0 C0.85432617 0.00424484 1.70865234 0.00848969 2.58886719 0.01286316 C5.28874682 0.02951172 7.98785011 0.06713652 10.6875 0.10546875 C12.52993705 0.12053352 14.37238593 0.13421877 16.21484375 0.14648438 C20.70602339 0.17936969 25.19663056 0.23105419 29.6875 0.29296875 C31.26727708 3.45252292 30.87197084 6.82760692 30.875 10.29296875 C30.88724609 11.0303125 30.89949219 11.76765625 30.91210938 12.52734375 C30.91737395 14.45066933 30.80953447 16.37351138 30.6875 18.29296875 C27.93310484 21.04736391 26.22146797 20.60286151 22.3671875 20.70703125 C21.23522949 20.7426416 20.10327148 20.77825195 18.93701172 20.81494141 C16.77162842 20.86593994 16.77162842 20.86593994 14.5625 20.91796875 C7.694375 21.10359375 7.694375 21.10359375 0.6875 21.29296875 C0.6875 31.85296875 0.6875 42.41296875 0.6875 53.29296875 C4.6475 53.29296875 8.6075 53.29296875 12.6875 53.29296875 C12.67589844 52.00519531 12.66429687 50.71742188 12.65234375 49.390625 C12.6429673 47.71224103 12.63386695 46.03385549 12.625 44.35546875 C12.61662109 43.50533203 12.60824219 42.65519531 12.59960938 41.77929688 C12.59638672 40.97041016 12.59316406 40.16152344 12.58984375 39.328125 C12.58460693 38.57926025 12.57937012 37.83039551 12.57397461 37.05883789 C12.6875 35.29296875 12.6875 35.29296875 13.6875 34.29296875 C15.31007544 34.19380305 16.93689831 34.16217098 18.5625 34.16015625 C19.54734375 34.15886719 20.5321875 34.15757812 21.546875 34.15625 C22.58328125 34.16011719 23.6196875 34.16398437 24.6875 34.16796875 C26.24210937 34.16216797 26.24210937 34.16216797 27.828125 34.15625 C28.81296875 34.15753906 29.7978125 34.15882813 30.8125 34.16015625 C31.72257812 34.16128418 32.63265625 34.16241211 33.5703125 34.16357422 C35.6875 34.29296875 35.6875 34.29296875 36.6875 35.29296875 C36.78849488 38.02021154 36.82720529 40.72159398 36.8203125 43.44921875 C36.82126923 44.26668579 36.82222595 45.08415283 36.82321167 45.9263916 C36.82389345 47.65812253 36.82203929 49.38985599 36.81787109 51.12158203 C36.81252279 53.78163357 36.81781612 56.44151625 36.82421875 59.1015625 C36.82355797 60.77994829 36.8222768 62.45833398 36.8203125 64.13671875 C36.82233673 64.93775024 36.82436096 65.73878174 36.82644653 66.56408691 C36.80245079 72.17801796 36.80245079 72.17801796 35.6875 73.29296875 C34.31825248 73.4013191 32.94354257 73.4419706 31.57006836 73.45410156 C30.2575132 73.46851288 30.2575132 73.46851288 28.91844177 73.48321533 C27.96437943 73.48746521 27.01031708 73.49171509 26.02734375 73.49609375 C25.04891006 73.50179382 24.07047638 73.5074939 23.06239319 73.5133667 C20.98341967 73.52283721 18.90443099 73.52935878 16.82543945 73.53320312 C13.66265012 73.54285387 10.50052572 73.57383498 7.33789062 73.60546875 C5.31771219 73.61200411 3.2975291 73.61725248 1.27734375 73.62109375 C0.33745102 73.63344055 -0.60244171 73.64578735 -1.57081604 73.6585083 C-8.16190386 73.63645896 -13.88774189 72.84500858 -19.3359375 68.78515625 C-19.78195312 68.25148438 -20.22796875 67.7178125 -20.6875 67.16796875 C-21.14898438 66.64976562 -21.61046875 66.1315625 -22.0859375 65.59765625 C-26.3784328 57.5321396 -25.62128584 48.02992648 -25.57324219 39.15478516 C-25.56252398 36.79824084 -25.57318098 34.44245864 -25.5859375 32.0859375 C-25.60750104 11.94266266 -25.60750104 11.94266266 -20.6875 6.41796875 C-20.24148438 5.88429688 -19.79546875 5.350625 -19.3359375 4.80078125 C-13.40132561 0.37846428 -7.1180658 -0.13576849 0 0 Z " fill="#DA7042" transform="translate(1215.3125,101.70703125)"/>
<path d="M0 0 C1.58669495 -0.00472824 1.58669495 -0.00472824 3.20544434 -0.009552 C4.93196228 -0.00651566 4.93196228 -0.00651566 6.69335938 -0.00341797 C8.45226501 -0.00485306 8.45226501 -0.00485306 10.2467041 -0.00631714 C12.73169 -0.00699917 15.21667766 -0.00514331 17.70166016 -0.00097656 C21.52054825 0.00437134 25.33931872 -0.00092083 29.15820312 -0.00732422 C31.56575547 -0.00666344 33.97330774 -0.00538229 36.38085938 -0.00341797 C38.10737732 -0.00645432 38.10737732 -0.00645432 39.86877441 -0.009552 C40.92657104 -0.00639984 41.98436768 -0.00324768 43.07421875 0 C44.47867249 0.00119339 44.47867249 0.00119339 45.91149902 0.00241089 C48.03710938 0.12939453 48.03710938 0.12939453 49.03710938 1.12939453 C49.12342812 2.47206866 49.14417411 3.81913775 49.13476562 5.16455078 C49.13154297 5.9734375 49.12832031 6.78232422 49.125 7.61572266 C49.11243164 8.89092773 49.11243164 8.89092773 49.09960938 10.19189453 C49.09509766 11.04589844 49.09058594 11.89990234 49.0859375 12.77978516 C49.07411311 14.89635117 49.05617706 17.01288138 49.03710938 19.12939453 C46.16692496 20.56448674 43.70167215 20.24097959 40.49804688 20.22705078 C39.19609375 20.22382812 37.89414062 20.22060547 36.55273438 20.21728516 C35.17252539 20.20892919 33.79231705 20.20046424 32.41210938 20.19189453 C31.02409012 20.18687954 29.63606915 20.18231663 28.24804688 20.17822266 C24.84435805 20.16640429 21.44075499 20.14992887 18.03710938 20.12939453 C18.03710938 22.43939453 18.03710938 24.74939453 18.03710938 27.12939453 C18.69831787 27.12415771 19.35952637 27.1189209 20.04077148 27.11352539 C23.01870789 27.09281797 25.99662919 27.07975441 28.97460938 27.06689453 C30.53598633 27.05432617 30.53598633 27.05432617 32.12890625 27.04150391 C33.11826172 27.03828125 34.10761719 27.03505859 35.12695312 27.03173828 C36.50161743 27.02388306 36.50161743 27.02388306 37.90405273 27.01586914 C40.03710938 27.12939453 40.03710938 27.12939453 41.03710938 28.12939453 C41.19028929 30.78942264 41.26870812 33.40561333 41.28710938 36.06689453 C41.30773437 36.80875 41.32835937 37.55060547 41.34960938 38.31494141 C41.36523438 40.46923828 41.36523438 40.46923828 41.03710938 44.12939453 C37.83304475 46.26543761 37.0411019 46.37148361 33.36914062 46.32470703 C32.47646484 46.31826172 31.58378906 46.31181641 30.6640625 46.30517578 C29.73529297 46.28841797 28.80652344 46.27166016 27.84960938 46.25439453 C26.90923828 46.24537109 25.96886719 46.23634766 25 46.22705078 C22.6787797 46.20348509 20.35807294 46.17058569 18.03710938 46.12939453 C18.03710938 48.43939453 18.03710938 50.74939453 18.03710938 53.12939453 C18.86960205 53.12415771 19.70209473 53.1189209 20.55981445 53.11352539 C23.65160873 53.09647228 26.74337901 53.08393888 29.83520508 53.07446289 C31.83025705 53.06696724 33.82528723 53.05426108 35.8203125 53.04150391 C37.07392578 53.03828125 38.32753906 53.03505859 39.61914062 53.03173828 C40.77647705 53.02650146 41.93381348 53.02126465 43.1262207 53.01586914 C46.03710938 53.12939453 46.03710938 53.12939453 49.03710938 54.12939453 C49.06394925 57.10862047 49.08386975 60.08760748 49.09960938 63.06689453 C49.10798828 63.91703125 49.11636719 64.76716797 49.125 65.64306641 C49.12822266 66.45195312 49.13144531 67.26083984 49.13476562 68.09423828 C49.14000244 68.84310303 49.14523926 69.59196777 49.15063477 70.36352539 C49.03710938 72.12939453 49.03710938 72.12939453 48.03710938 73.12939453 C46.34908952 73.22292616 44.6571573 73.24684244 42.96655273 73.24291992 C41.88550766 73.24284439 40.80446259 73.24276886 39.69065857 73.24269104 C37.92662437 73.23494911 37.92662437 73.23494911 36.12695312 73.22705078 C34.92978165 73.22563583 33.73261017 73.22422089 32.49916077 73.22276306 C28.65761872 73.21714432 24.81613395 73.20458864 20.97460938 73.19189453 C18.37760501 73.18688195 15.78059973 73.18231862 13.18359375 73.17822266 C6.80141259 73.16716881 0.41926507 73.15041245 -5.96289062 73.12939453 C-5.98601566 63.75903515 -6.00380653 54.38868552 -6.0147028 45.01830387 C-6.01993127 40.66770994 -6.02702828 36.31713547 -6.03833008 31.96655273 C-6.04916022 27.77149195 -6.05516773 23.57644994 -6.05776787 19.38137627 C-6.05962189 17.77732485 -6.06324207 16.17327451 -6.06862068 14.56923103 C-6.07583281 12.33022938 -6.0768815 10.09130624 -6.07641602 7.85229492 C-6.07863663 6.57544327 -6.08085724 5.29859161 -6.08314514 3.98304749 C-5.88422986 -0.73723412 -4.25752506 0.0036177 0 0 Z " fill="#DA7042" transform="translate(918.962890625,101.87060546875)"/>
<path d="M0 0 C7.59 0 15.18 0 23 0 C24.24177521 2.48355041 24.12036681 4.13107622 24.11352539 6.90869141 C24.11344986 7.92959869 24.11337433 8.95050598 24.11329651 10.00234985 C24.10813522 11.10759003 24.10297394 12.2128302 24.09765625 13.3515625 C24.0962413 14.4807309 24.09482635 15.60989929 24.09336853 16.77328491 C24.08775744 20.39054988 24.07520303 24.00775364 24.0625 27.625 C24.05748643 30.07291577 24.05292328 32.52083252 24.04882812 34.96875 C24.03778439 40.97919036 24.02051229 46.98958479 24 53 C27.96 53 31.92 53 36 53 C35.96519531 51.72382813 35.93039062 50.44765625 35.89453125 49.1328125 C35.86639769 47.46355479 35.83909707 45.7942829 35.8125 44.125 C35.78736328 43.28324219 35.76222656 42.44148438 35.73632812 41.57421875 C35.72666016 40.76855469 35.71699219 39.96289062 35.70703125 39.1328125 C35.6913208 38.38918457 35.67561035 37.64555664 35.65942383 36.87939453 C35.82800903 35.94909424 35.82800903 35.94909424 36 35 C40.07073125 32.28617917 43.22328112 32.66872359 48 32.6875 C49.22976563 32.66333008 49.22976563 32.66333008 50.484375 32.63867188 C51.27328125 32.63802734 52.0621875 32.63738281 52.875 32.63671875 C53.59429687 32.63373779 54.31359375 32.63075684 55.0546875 32.62768555 C57 33 57 33 58.73730469 34.03027344 C60.71714769 37.11870603 60.38703746 40.32976669 60.328125 43.87890625 C60.32625183 44.64677963 60.32437866 45.41465302 60.32244873 46.20579529 C60.3157318 47.82726389 60.30182431 49.44871638 60.28125 51.07006836 C60.25007359 53.55663043 60.24027648 56.04255865 60.234375 58.52929688 C60.22520564 60.10417442 60.21483008 61.67904551 60.203125 63.25390625 C60.19675018 64.37267906 60.19675018 64.37267906 60.19024658 65.51405334 C60.11721913 70.76556175 60.11721913 70.76556175 59 73 C39.53 73 20.06 73 0 73 C-1.43409227 70.13181547 -1.12729601 67.67629397 -1.12939453 64.47070312 C-1.13114685 63.80062729 -1.13289917 63.13055145 -1.13470459 62.44017029 C-1.1391135 60.22050401 -1.1361885 58.00091712 -1.1328125 55.78125 C-1.13348582 54.24190251 -1.13445607 52.70255513 -1.13571167 51.16320801 C-1.13718734 47.93512969 -1.13503828 44.70707902 -1.13037109 41.47900391 C-1.12467388 37.33600921 -1.12795358 33.19307929 -1.13394356 29.05008698 C-1.13755269 25.87086497 -1.13640896 22.69165838 -1.13381577 19.51243591 C-1.13314747 17.98457329 -1.13397152 16.45670927 -1.13629532 14.92884827 C-1.1388276 12.7956266 -1.13497311 10.66251065 -1.12939453 8.52929688 C-1.12859894 7.31399292 -1.12780334 6.09868896 -1.12698364 4.84655762 C-1 2 -1 2 0 0 Z " fill="#DA7042" transform="translate(339,102)"/>
<path d="M0 0 C0.98484375 -0.00128906 1.9696875 -0.00257812 2.984375 -0.00390625 C4.02078125 -0.00003906 5.0571875 0.00382812 6.125 0.0078125 C7.67960938 0.00201172 7.67960938 0.00201172 9.265625 -0.00390625 C10.25046875 -0.00261719 11.2353125 -0.00132813 12.25 0 C13.16007813 0.00112793 14.07015625 0.00225586 15.0078125 0.00341797 C17.125 0.1328125 17.125 0.1328125 18.125 1.1328125 C18.21840434 2.75956028 18.24245171 4.39035301 18.23852539 6.01977539 C18.23844986 7.06077896 18.23837433 8.10178253 18.23829651 9.17433167 C18.23313522 10.3066069 18.22797394 11.43888214 18.22265625 12.60546875 C18.2212413 13.75824814 18.21982635 14.91102753 18.21836853 16.09873962 C18.21275005 19.79762314 18.20019442 23.49644714 18.1875 27.1953125 C18.18248738 29.69596267 18.17792406 32.19661379 18.17382812 34.69726562 C18.16277462 40.84247101 18.1454976 46.98763165 18.125 53.1328125 C22.415 53.1328125 26.705 53.1328125 31.125 53.1328125 C31.125 46.8628125 31.125 40.5928125 31.125 34.1328125 C34.52876894 32.43092803 38.31175899 32.94823136 42.0625 32.9453125 C43.2990332 32.92694336 43.2990332 32.92694336 44.56054688 32.90820312 C45.35396484 32.90626953 46.14738281 32.90433594 46.96484375 32.90234375 C47.69050537 32.89823486 48.41616699 32.89412598 49.16381836 32.88989258 C51.125 33.1328125 51.125 33.1328125 54.125 35.1328125 C54.40417202 37.95837754 54.49694852 40.5618711 54.453125 43.38671875 C54.45125183 44.20277084 54.44937866 45.01882294 54.44744873 45.85960388 C54.44072221 47.5853992 54.42679579 49.31117911 54.40625 51.03686523 C54.37508442 53.68813124 54.36527964 56.33880334 54.359375 58.99023438 C54.35020577 60.6640698 54.33983025 62.33789914 54.328125 64.01171875 C54.32175018 65.20856041 54.32175018 65.20856041 54.31524658 66.42958069 C54.24215232 72.01566018 54.24215232 72.01566018 53.125 73.1328125 C51.31990627 73.23180811 49.51093072 73.26080401 47.703125 73.26220703 C46.54522461 73.26535919 45.38732422 73.26851135 44.19433594 73.27175903 C42.30376465 73.26872269 42.30376465 73.26872269 40.375 73.265625 C39.09141602 73.26658173 37.80783203 73.26753845 36.48535156 73.26852417 C33.76496176 73.27000081 31.04460475 73.26784769 28.32421875 73.26318359 C24.83015331 73.25748631 21.33616467 73.26076549 17.84210205 73.26675606 C14.51972847 73.27123004 11.19737577 73.26810135 7.875 73.265625 C6.61461914 73.26764923 5.35423828 73.26967346 4.05566406 73.27175903 C2.89776367 73.26860687 1.73986328 73.26545471 0.546875 73.26220703 C-0.47825195 73.26141144 -1.50337891 73.26061584 -2.55957031 73.25979614 C-4.875 73.1328125 -4.875 73.1328125 -5.875 72.1328125 C-5.97460152 69.92956276 -6.00299757 67.7230776 -6.00439453 65.51757812 C-6.00614685 64.82653488 -6.00789917 64.13549164 -6.00970459 63.42350769 C-6.01412254 61.12866743 -6.01118533 58.83390361 -6.0078125 56.5390625 C-6.00848556 54.95104965 -6.00945559 53.36303691 -6.01071167 51.77502441 C-6.01218857 48.442617 -6.01003436 45.11023634 -6.00537109 41.77783203 C-5.9996738 37.4968274 -6.00295285 33.21588545 -6.00894356 28.93488312 C-6.0125494 25.65447514 -6.01141048 22.37408213 -6.00881577 19.09367371 C-6.00814656 17.514745 -6.0089747 15.93581496 -6.01129532 14.35688782 C-6.01382223 12.15390397 -6.00998075 9.95102301 -6.00439453 7.74804688 C-6.00359894 6.49197632 -6.00280334 5.23590576 -6.00198364 3.94177246 C-5.79202043 -0.70274913 -4.18831502 0.0051909 0 0 Z " fill="#DA7042" transform="translate(626.875,101.8671875)"/>
<path d="M0 0 C7.10244999 -0.02526787 14.20488848 -0.04283201 21.30737305 -0.05493164 C23.72567172 -0.05997349 26.14396733 -0.06680678 28.56225586 -0.07543945 C32.02979283 -0.08751157 35.49728966 -0.09322963 38.96484375 -0.09765625 C40.05337143 -0.10281754 41.14189911 -0.10797882 42.26341248 -0.11329651 C43.76485558 -0.11340981 43.76485558 -0.11340981 45.29663086 -0.11352539 C46.62566689 -0.11685631 46.62566689 -0.11685631 47.98155212 -0.12025452 C50 0 50 0 51 1 C51.0983721 2.33043625 51.13078592 3.66593344 51.1328125 5 C51.13474609 6.2065625 51.13474609 6.2065625 51.13671875 7.4375 C51.13285156 8.283125 51.12898438 9.12875 51.125 10 C51.13080078 11.2684375 51.13080078 11.2684375 51.13671875 12.5625 C51.13542969 13.366875 51.13414063 14.17125 51.1328125 15 C51.13168457 15.7425 51.13055664 16.485 51.12939453 17.25 C51 19 51 19 50 20 C46.04 20 42.08 20 38 20 C38 30.89 38 41.78 38 53 C41.63 53 45.26 53 49 53 C49.99 53.495 49.99 53.495 51 54 C51.02683987 56.97922593 51.04676037 59.95821295 51.0625 62.9375 C51.07087891 63.78763672 51.07925781 64.63777344 51.08789062 65.51367188 C51.09111328 66.32255859 51.09433594 67.13144531 51.09765625 67.96484375 C51.10289307 68.7137085 51.10812988 69.46257324 51.11352539 70.23413086 C51 72 51 72 50 73 C48.43452952 73.09326716 46.86487228 73.11745582 45.29663086 73.11352539 C44.29566879 73.11344986 43.29470673 73.11337433 42.26341248 73.11329651 C41.1748848 73.10813522 40.08635712 73.10297394 38.96484375 73.09765625 C37.85645645 73.0962413 36.74806915 73.09482635 35.60609436 73.09336853 C32.04986931 73.08775033 28.49370617 73.07519475 24.9375 73.0625 C22.53320403 73.05748734 20.12890708 73.05292403 17.72460938 73.04882812 C11.81638496 73.03777499 5.9081969 73.02101917 0 73 C-1.50929383 69.98141234 -1.22510073 66.87099046 -1.25 63.5625 C-1.270625 62.88123047 -1.29125 62.19996094 -1.3125 61.49804688 C-1.328125 59.50390625 -1.328125 59.50390625 -1 56 C-0.01 55.01 0.98 54.02 2 53 C5.63 53 9.26 53 13 53 C13 42.11 13 31.22 13 20 C9.04 20 5.08 20 1 20 C-1.43044139 16.35433792 -1.26310692 13.64363257 -1.1875 9.4375 C-1.1865332 8.40979492 -1.1865332 8.40979492 -1.18554688 7.36132812 C-1.14067963 2.28135927 -1.14067963 2.28135927 0 0 Z " fill="#DA7042" transform="translate(1053,102)"/>
<path d="M0 0 C1.24463768 0.00280975 1.24463768 0.00280975 2.51441956 0.00567627 C4.2514351 0.01235084 5.9884368 0.02617253 7.7253418 0.046875 C10.39581114 0.07832408 13.06569104 0.08788101 15.73632812 0.09375 C17.42839269 0.10290943 19.12045122 0.11328179 20.8125 0.125 C21.61344589 0.12924988 22.41439178 0.13349976 23.23960876 0.13787842 C28.82416896 0.21088771 28.82416896 0.21088771 29.94140625 1.328125 C30.04147633 4.15068991 30.08016223 6.9433569 30.06640625 9.765625 C30.07220703 10.94995117 30.07220703 10.94995117 30.078125 12.15820312 C30.06803692 18.07486367 30.06803692 18.07486367 28.94140625 20.328125 C28.1642627 20.35318115 27.38711914 20.3782373 26.58642578 20.40405273 C23.07957556 20.51979296 19.5730088 20.64261852 16.06640625 20.765625 C14.84308594 20.80494141 13.61976563 20.84425781 12.359375 20.88476562 C11.19277344 20.92666016 10.02617188 20.96855469 8.82421875 21.01171875 C7.74543457 21.04837646 6.66665039 21.08503418 5.55517578 21.12280273 C2.96071089 21.16189143 2.96071089 21.16189143 0.94140625 22.328125 C0.91674879 26.4398506 0.89856666 30.55154778 0.88647461 34.66333008 C0.88143545 36.06307728 0.87460409 37.4628192 0.8659668 38.86254883 C0.85388305 40.87058277 0.84870818 42.87865457 0.84375 44.88671875 C0.83851318 46.09642334 0.83327637 47.30612793 0.82788086 48.55249023 C0.6236534 51.23624517 0.6236534 51.23624517 1.94140625 52.328125 C3.8434228 52.46187377 5.75001212 52.53164128 7.65625 52.57421875 C8.81705078 52.60708984 9.97785156 52.63996094 11.17382812 52.67382812 C13.63988257 52.734927 16.10603401 52.79223115 18.57226562 52.84570312 C19.73435547 52.87986328 20.89644531 52.91402344 22.09375 52.94921875 C23.70237915 52.98680298 23.70237915 52.98680298 25.34350586 53.02514648 C27.94140625 53.328125 27.94140625 53.328125 29.94140625 55.328125 C30.11319677 58.21944677 30.17370095 61.00254565 30.12890625 63.890625 C30.12826172 64.68404297 30.12761719 65.47746094 30.12695312 66.29492188 C30.08166147 72.18786978 30.08166147 72.18786978 28.94140625 73.328125 C23.54853448 73.62236968 18.15281509 73.64243138 12.75268555 73.67822266 C10.93614804 73.69467943 9.11967247 73.72183133 7.3034668 73.76025391 C-12.70868221 74.18133105 -12.70868221 74.18133105 -20.05859375 68.328125 C-23.85068159 63.79611758 -25.1641339 59.95157882 -25.21972656 54.14550781 C-25.22933411 53.33075989 -25.23894165 52.51601196 -25.24884033 51.67657471 C-25.25521515 50.36713898 -25.25521515 50.36713898 -25.26171875 49.03125 C-25.27026886 47.66984894 -25.27026886 47.66984894 -25.2789917 46.28094482 C-25.28842858 44.36113648 -25.29497047 42.44131204 -25.29882812 40.52148438 C-25.30851264 37.60257242 -25.33953974 34.6843712 -25.37109375 31.765625 C-25.37762656 29.89583749 -25.38287594 28.02604497 -25.38671875 26.15625 C-25.39906555 25.29138977 -25.41141235 24.42652954 -25.4241333 23.53546143 C-25.39906544 16.62464044 -24.21987781 11.10691879 -19.87109375 5.515625 C-13.68863458 0.70704565 -7.56529717 -0.11872146 0 0 Z " fill="#DA7042" transform="translate(507.05859375,101.671875)"/>
<path d="M0 0 C1.21346603 0.00068733 1.21346603 0.00068733 2.45144653 0.00138855 C4.1473336 0.00439119 5.84321841 0.01221727 7.5390625 0.0246582 C10.14593144 0.04306136 12.75244749 0.04516661 15.359375 0.04492188 C17.01041976 0.04983231 18.66146211 0.05565854 20.3125 0.0625 C21.48581375 0.06416924 21.48581375 0.06416924 22.68283081 0.06587219 C28.14171469 0.11437094 28.14171469 0.11437094 29.2578125 1.23046875 C29.3561846 2.560905 29.38859842 3.89640219 29.390625 5.23046875 C29.39255859 6.43703125 29.39255859 6.43703125 29.39453125 7.66796875 C29.39066406 8.51359375 29.38679687 9.35921875 29.3828125 10.23046875 C29.38861328 11.49890625 29.38861328 11.49890625 29.39453125 12.79296875 C29.39324219 13.59734375 29.39195312 14.40171875 29.390625 15.23046875 C29.38949707 15.97296875 29.38836914 16.71546875 29.38720703 17.48046875 C29.2578125 19.23046875 29.2578125 19.23046875 28.2578125 20.23046875 C26.35579595 20.36421752 24.44920663 20.43398503 22.54296875 20.4765625 C21.38216797 20.50943359 20.22136719 20.54230469 19.02539062 20.57617188 C16.55933618 20.63727075 14.09318474 20.6945749 11.62695312 20.74804688 C9.88381836 20.79928711 9.88381836 20.79928711 8.10546875 20.8515625 C6.4968396 20.88914673 6.4968396 20.88914673 4.85571289 20.92749023 C2.09782207 20.97683532 2.09782207 20.97683532 0.2578125 23.23046875 C-0.03739624 26.01410561 -0.03739624 26.01410561 0.02734375 29.26171875 C0.03024414 31.06576172 0.03024414 31.06576172 0.03320312 32.90625 C0.04544922 34.16824219 0.05769531 35.43023437 0.0703125 36.73046875 C0.07095703 37.99246094 0.07160156 39.25445312 0.07226562 40.5546875 C-0.22097493 46.57320333 -0.22097493 46.57320333 1.2578125 52.23046875 C2.42352783 52.26805298 2.42352783 52.26805298 3.61279297 52.30639648 C7.11964319 52.42213671 10.62620995 52.54496227 14.1328125 52.66796875 C15.96779297 52.72694336 15.96779297 52.72694336 17.83984375 52.78710938 C19.58974609 52.84995117 19.58974609 52.84995117 21.375 52.9140625 C22.45378418 52.95072021 23.53256836 52.98737793 24.64404297 53.02514648 C27.2578125 53.23046875 27.2578125 53.23046875 29.2578125 54.23046875 C29.28465237 57.20969468 29.30457287 60.1886817 29.3203125 63.16796875 C29.32869141 64.01810547 29.33707031 64.86824219 29.34570312 65.74414062 C29.34892578 66.55302734 29.35214844 67.36191406 29.35546875 68.1953125 C29.36070557 68.94417725 29.36594238 69.69304199 29.37133789 70.46459961 C29.2578125 72.23046875 29.2578125 72.23046875 28.2578125 73.23046875 C25.53967213 73.35651193 22.84839528 73.41916394 20.12890625 73.43359375 C19.30584488 73.43929382 18.48278351 73.4449939 17.63478088 73.4508667 C15.88535859 73.46033662 14.13591831 73.46685855 12.38647461 73.47070312 C9.73063016 73.48034059 7.0755822 73.51131547 4.41992188 73.54296875 C2.71875459 73.54950557 1.01758176 73.55475337 -0.68359375 73.55859375 C-1.86375816 73.57711395 -1.86375816 73.57711395 -3.06776428 73.5960083 C-9.21963488 73.57161804 -14.92793499 72.58012929 -19.80078125 68.51171875 C-20.25582031 67.92390625 -20.71085938 67.33609375 -21.1796875 66.73046875 C-21.65277344 66.14265625 -22.12585938 65.55484375 -22.61328125 64.94921875 C-24.62221307 61.89063743 -24.87336975 59.22450084 -24.90332031 55.6706543 C-24.91292786 54.7492717 -24.9225354 53.8278891 -24.93243408 52.87858582 C-24.93668396 51.88482437 -24.94093384 50.89106293 -24.9453125 49.8671875 C-24.95101257 48.84244827 -24.95671265 47.81770905 -24.96258545 46.76191711 C-24.97203465 44.59234652 -24.97856911 42.42276158 -24.98242188 40.25317383 C-24.99211915 36.94131279 -25.02314031 33.63007453 -25.0546875 30.31835938 C-25.06121856 28.2096391 -25.06646863 26.10091439 -25.0703125 23.9921875 C-25.0826593 23.00449875 -25.0950061 22.01681 -25.10772705 20.99919128 C-25.08510954 13.98400607 -24.11647097 9.60475222 -18.9921875 4.48046875 C-12.99229938 0.32670005 -7.05026391 -0.06578648 0 0 Z " fill="#DA7042" transform="translate(736.7421875,101.76953125)"/>
<path d="M0 0 C1.19794189 -0.00315216 2.39588379 -0.00630432 3.63012695 -0.009552 C4.93425537 -0.00752777 6.23838379 -0.00550354 7.58203125 -0.00341797 C8.9234214 -0.00409107 10.26481144 -0.00506115 11.60620117 -0.00631714 C14.42074746 -0.00779382 17.23526207 -0.00564051 20.04980469 -0.00097656 C23.66493756 0.00472073 27.2799962 0.00144156 30.89512634 -0.00454903 C33.66598067 -0.00815544 36.43681727 -0.00701569 39.20767212 -0.00442123 C41.19142708 -0.0034258 43.17518272 -0.00647288 45.15893555 -0.009552 C46.35687744 -0.00639984 47.55481934 -0.00324768 48.7890625 0 C49.84971924 0.00079559 50.91037598 0.00159119 52.00317383 0.00241089 C54.39453125 0.12939453 54.39453125 0.12939453 55.39453125 1.12939453 C55.49290335 2.45983078 55.52531717 3.79532797 55.52734375 5.12939453 C55.52927734 6.33595703 55.52927734 6.33595703 55.53125 7.56689453 C55.52738281 8.41251953 55.52351562 9.25814453 55.51953125 10.12939453 C55.52533203 11.39783203 55.52533203 11.39783203 55.53125 12.69189453 C55.52996094 13.49626953 55.52867187 14.30064453 55.52734375 15.12939453 C55.52621582 15.87189453 55.52508789 16.61439453 55.52392578 17.37939453 C55.39453125 19.12939453 55.39453125 19.12939453 54.39453125 20.12939453 C51.53185558 20.20264621 48.69381225 20.22177658 45.83203125 20.19189453 C45.02572266 20.18738281 44.21941406 20.18287109 43.38867188 20.17822266 C41.39059369 20.16639971 39.39255342 20.14846367 37.39453125 20.12939453 C37.39675186 20.77863388 37.39897247 21.42787323 37.40126038 22.0967865 C37.42331127 28.82827201 37.43843702 35.55974734 37.44946289 42.29125977 C37.45450488 44.80656348 37.46133828 47.32186425 37.4699707 49.8371582 C37.48204219 53.44369228 37.48776074 57.05018776 37.4921875 60.65673828 C37.49734879 61.78901352 37.50251007 62.92128876 37.50782776 64.08787537 C37.50790329 65.12887894 37.50797882 66.16988251 37.50805664 67.24243164 C37.51027725 68.16398544 37.51249786 69.08553925 37.51478577 70.03501892 C37.39453125 72.12939453 37.39453125 72.12939453 36.39453125 73.12939453 C34.69894399 73.22871607 32.99927378 73.2601946 31.30078125 73.26220703 C30.27082031 73.26349609 29.24085938 73.26478516 28.1796875 73.26611328 C26.55353516 73.2603125 26.55353516 73.2603125 24.89453125 73.25439453 C23.81042969 73.25826172 22.72632813 73.26212891 21.609375 73.26611328 C20.57941406 73.26482422 19.54945313 73.26353516 18.48828125 73.26220703 C17.53630859 73.2610791 16.58433594 73.25995117 15.60351562 73.25878906 C13.39453125 73.12939453 13.39453125 73.12939453 12.39453125 72.12939453 C12.30112691 70.50264675 12.27707954 68.87185402 12.28100586 67.24243164 C12.28108139 66.20142807 12.28115692 65.1604245 12.28123474 64.08787537 C12.28639603 62.95560013 12.29155731 61.82332489 12.296875 60.65673828 C12.29828995 59.50395889 12.2997049 58.3511795 12.30116272 57.16346741 C12.3067812 53.4645839 12.31933683 49.76575989 12.33203125 46.06689453 C12.33704387 43.56624436 12.34160719 41.06559325 12.34570312 38.56494141 C12.35675663 32.41973602 12.37403365 26.27457538 12.39453125 20.12939453 C6.45453125 20.12939453 0.51453125 20.12939453 -5.60546875 20.12939453 C-7.25385819 16.83261565 -6.74819613 13.18623409 -6.73046875 9.56689453 C-6.73433594 8.77347656 -6.73820313 7.98005859 -6.7421875 7.16259766 C-6.73061672 0.38790382 -6.67623984 0.00500781 0 0 Z " fill="#DA7042" transform="translate(848.60546875,101.87060546875)"/>
</svg>
